<svg width="110" height="109" viewBox="0 0 110 109" fill="none" xmlns="http://www.w3.org/2000/svg">
<path d="M45.07 22.6671C44.8329 23.3486 44.4477 23.7041 43.7663 23.9708C41.6625 24.7412 39.6181 25.6893 37.5144 26.519C37.0699 26.6967 36.4477 26.756 36.0032 26.5782C34.6699 26.0745 33.3365 25.4819 32.0625 24.8597C31.055 24.3856 30.255 24.5338 29.455 25.3041C27.2921 27.4967 25.1291 29.6597 22.9365 31.8227C22.1957 32.5634 22.0179 33.3635 22.492 34.3412C23.1142 35.6746 23.7365 37.0079 24.2698 38.4005C24.418 38.8153 24.3883 39.3783 24.2105 39.7931C23.3513 41.9561 22.4624 44.0895 21.5439 46.2228C21.3364 46.6673 20.9513 47.1117 20.5068 47.3191C19.1735 47.9117 17.7512 48.4154 16.3883 48.9191C15.4994 49.2451 15.0253 49.8673 15.0549 50.8451C15.0845 53.9858 15.0845 57.1266 15.0549 60.2674C15.0549 61.3044 15.4994 61.9266 16.4475 62.2822C17.8401 62.7859 19.2327 63.2896 20.5661 63.9118C20.9809 64.0896 21.3661 64.5044 21.5439 64.9193C22.492 67.0822 23.4105 69.2452 24.2698 71.4378C24.418 71.823 24.4772 72.3564 24.3291 72.7416C23.7661 74.1342 23.1439 75.5268 22.492 76.8897C22.0476 77.8083 22.1957 78.5786 22.9365 79.2898C25.1291 81.4824 27.3513 83.675 29.5143 85.8676C30.255 86.638 31.0847 86.7565 32.0328 86.312C33.3365 85.7194 34.6403 85.0972 35.9736 84.5935C36.4181 84.4157 37.0403 84.4454 37.4847 84.6231C39.6477 85.4528 41.7811 86.3417 43.9144 87.2898C44.3292 87.4676 44.7737 87.8528 44.9515 88.2676C45.544 89.6009 46.0478 90.9935 46.5515 92.3862C46.907 93.3343 47.5293 93.838 48.5367 93.838C51.6774 93.838 54.8182 93.838 57.959 93.838C58.9664 93.838 59.6182 93.3639 59.9442 92.3862C60.4479 90.9935 60.9516 89.6009 61.5738 88.2676C61.7516 87.8528 62.196 87.4676 62.6109 87.2898C63.8553 86.7565 65.1887 86.3713 66.4331 85.8676C67.6479 85.3935 68.8331 84.4454 70.048 84.475C71.2628 84.5046 72.4776 85.4231 73.6924 85.9565C74.285 86.2231 74.9073 86.4602 75.6184 86.7269C76.0628 86.4602 76.5665 86.2824 76.9221 85.9565C79.174 83.7639 81.3666 81.512 83.5888 79.3194C84.2999 78.6083 84.4481 77.8083 84.0333 76.8897C83.411 75.5564 82.7888 74.223 82.2555 72.8304C82.1073 72.4156 82.1073 71.8527 82.2555 71.4378C83.1147 69.2452 84.0036 67.0526 84.9518 64.8896C85.1296 64.5044 85.4851 64.0896 85.8407 63.9415C87.2037 63.3489 88.5666 62.8155 89.9592 62.3415C90.9667 61.9859 91.4407 61.334 91.4407 60.2674C91.4407 57.1562 91.4407 54.0451 91.4407 50.9636C91.4407 49.8969 90.9667 49.2451 89.9592 48.8895C88.5666 48.3858 87.174 47.8821 85.8407 47.2895C85.4555 47.1117 85.0999 46.7265 84.9518 46.3413C84.0036 44.1784 83.1147 42.0154 82.2555 39.7931C82.1073 39.3783 82.0777 38.7857 82.2258 38.4005C82.7592 37.0376 83.3814 35.6746 84.0036 34.3412C84.4184 33.4227 84.2999 32.6523 83.5888 31.9116C81.3666 29.6893 79.1443 27.4671 76.9221 25.2449C76.2406 24.5634 75.4702 24.4152 74.611 24.8004C73.248 25.4226 71.8554 26.0745 70.4628 26.6375C70.048 26.7856 69.485 26.756 69.0702 26.5782C66.9072 25.7189 64.7738 24.83 62.6405 23.9115C62.196 23.7041 61.7516 23.3189 61.5442 22.8745C60.9516 21.5708 60.4775 20.2078 59.9738 18.8448C59.6182 17.867 58.9664 17.3633 57.8997 17.393C54.7886 17.4226 51.6774 17.4226 48.5959 17.393C47.5589 17.393 46.9367 17.8374 46.5811 18.7856C46.0774 20.0596 45.5144 21.3337 45.07 22.6671ZM47.7959 25.4226C48.27 24.1486 48.8033 22.8745 49.2478 21.6004C49.4256 21.0671 49.7219 20.8893 50.2848 20.8893C52.27 20.9189 54.2849 20.8596 56.2701 20.9189C56.596 20.9189 57.0701 21.2745 57.1886 21.5708C57.7516 22.8448 58.1367 24.2078 58.759 25.4523C59.0553 26.0449 59.6775 26.6967 60.2701 26.8449C63.1738 27.6745 65.8998 28.8005 68.5368 30.2819C69.0702 30.5782 69.9887 30.5782 70.6109 30.3708C71.9443 29.9264 73.1591 29.2449 74.4628 28.7116C74.7591 28.593 75.2924 28.6227 75.4999 28.8005C77.0406 30.2523 78.4925 31.7634 79.974 33.2449C80.1221 33.3931 80.211 33.6005 80.2999 33.7486C79.9443 34.5486 79.7073 35.3487 79.2925 36.0301C77.9591 38.1339 78.048 39.9709 79.411 42.1339C80.5369 43.9413 81.0999 46.1339 81.7518 48.1784C82.0777 49.1562 82.5518 49.7784 83.4999 50.1043C84.6851 50.5191 85.8407 51.0229 87.0259 51.4377C87.6185 51.6451 87.9148 51.9414 87.8851 52.6229C87.8259 54.5488 87.8555 56.4748 87.8851 58.4007C87.8851 58.9933 87.737 59.3192 87.1148 59.5266C85.8703 59.9414 84.6555 60.5044 83.3814 60.9489C82.4925 61.2452 82.0777 61.8674 81.7518 62.7267C80.7443 65.3637 79.648 68.0008 78.4925 70.5786C78.1073 71.4675 77.9591 72.2082 78.4036 73.0971C78.9666 74.2527 79.4406 75.4675 80.0036 76.6231C80.2703 77.1564 80.2703 77.512 79.7962 77.986C78.374 79.349 77.0406 80.7712 75.6184 82.1046C75.3517 82.3416 74.7591 82.4601 74.4035 82.312C73.1591 81.8379 71.9443 81.3046 70.7591 80.712C69.8702 80.2972 69.1294 80.4157 68.2405 80.8305C65.6627 81.9861 63.0257 83.0527 60.3886 84.0602C59.5294 84.3861 58.9368 84.8305 58.6108 85.7194C58.1664 86.9935 57.6627 88.2972 57.1293 89.5417C56.9812 89.838 56.5071 90.1935 56.1812 90.1935C54.196 90.2528 52.1811 90.2528 50.1959 90.1935C49.8404 90.1935 49.3663 89.8084 49.1885 89.4528C48.6256 88.2083 48.27 86.875 47.6478 85.6602C47.3218 85.0379 46.6996 84.3565 46.0478 84.1787C43.2329 83.3787 40.5366 82.3416 38.0181 80.8009C37.2477 80.3268 36.5366 80.2972 35.7069 80.6824C34.4625 81.2749 33.218 81.8379 31.9439 82.312C31.618 82.4305 30.9958 82.3416 30.7291 82.1046C29.2773 80.7416 27.855 79.3194 26.492 77.8675C26.2846 77.6305 26.1957 77.0675 26.3143 76.7416C26.818 75.4379 27.5291 74.1934 27.9439 72.8897C28.1513 72.2378 28.0921 71.3786 27.8254 70.7267C26.7883 68.0304 25.5735 65.3637 24.5365 62.6674C24.2105 61.8378 23.7957 61.2748 22.9661 60.9785C21.7216 60.534 20.5068 60.0007 19.2327 59.5563C18.6698 59.3489 18.4327 59.0822 18.4327 58.4303C18.492 56.4748 18.4623 54.5192 18.4327 52.5636C18.4327 52.0006 18.6105 51.7043 19.1438 51.5266C20.4772 51.0525 21.8105 50.608 23.055 49.9858C23.6476 49.6895 24.1809 49.0377 24.4476 48.4451C25.6328 45.7784 26.6698 43.082 27.8254 40.4154C28.1809 39.6154 28.3291 38.9042 27.9439 38.1042C27.3513 36.8598 26.8476 35.6153 26.255 34.3709C26.018 33.8672 26.018 33.5412 26.4624 33.1264C27.9143 31.7338 29.3069 30.3412 30.6995 28.8893C31.1143 28.4449 31.4699 28.4745 31.9439 28.7116C33.1588 29.2745 34.3736 29.7782 35.5884 30.3412C36.4181 30.7264 37.1588 30.6375 38.0181 30.2523C40.6255 29.0671 43.2922 27.9708 45.9589 26.9634C46.907 26.6671 47.4996 26.2523 47.7959 25.4226ZM6.72892 73.186C7.02522 74.1934 6.55114 75.1416 5.66224 75.4379C4.68446 75.7638 3.7363 75.349 3.38074 74.2527C2.66962 72.0601 1.86962 69.8378 1.36591 67.586C-4.85636 40.208 10.6993 13.1559 37.4551 4.71137C37.7218 4.62248 37.9884 4.53359 38.4329 4.35581C37.4847 4.00025 36.7144 3.73358 35.9736 3.43728C34.9069 2.99283 34.4921 2.10394 34.8477 1.12615C35.1736 0.237256 36.1218 -0.236822 37.1292 0.118737C39.9144 1.06689 42.6996 2.04468 45.4552 3.08172C46.7292 3.5558 47.0552 4.77063 46.2552 5.89656C44.5366 8.29658 42.7588 10.667 40.9514 13.0077C40.2403 13.9263 39.2329 14.0744 38.4329 13.4522C37.6032 12.83 37.4551 11.8522 38.1366 10.904C38.8773 9.83733 39.6773 8.80029 40.4773 7.73361C40.4181 7.61509 40.3588 7.5262 40.2996 7.40768C37.8699 8.32621 35.3514 9.06696 33.0106 10.1929C16.7734 17.867 7.05485 30.6079 4.09186 48.3265C2.75851 56.3859 3.64741 64.297 6.37336 72.0008C6.49188 72.4156 6.6104 72.7712 6.72892 73.186ZM109.337 69.3341C107.115 71.2897 104.863 73.186 102.582 75.0823C101.574 75.9119 100.33 75.6453 99.826 74.4601C98.5815 71.7045 97.3963 68.9193 96.2408 66.1341C95.826 65.1563 96.2704 64.1785 97.1297 63.823C98.0186 63.4378 98.9964 63.7637 99.4408 64.7415C100.033 65.9563 100.537 67.2008 101.07 68.4452C101.219 68.4452 101.337 68.4452 101.485 68.4452C101.959 65.3045 102.641 62.1637 102.848 58.9933C104.27 36.6524 91.2629 16.6522 70.285 8.91881C67.7072 7.97065 64.9516 7.43731 62.2849 6.7262C61.959 6.63731 61.6331 6.60768 61.3071 6.51879C60.2108 6.25212 59.6479 5.42248 59.8553 4.38544C60.0331 3.40765 60.9516 2.87431 62.0479 3.05209C83.9444 6.60768 101.604 23.9708 105.574 45.808C106.878 52.9784 106.759 60.1192 105.159 67.26C105.1 67.4971 105.07 67.7637 105.011 68.3267C105.811 67.6452 106.404 67.1415 106.996 66.6674C107.915 65.9563 108.893 66.0748 109.545 66.8748C110.196 67.6156 110.167 68.5934 109.337 69.3341ZM94.2556 86.875C94.9667 87.5565 95.0852 88.3269 94.5519 89.1861C94.4037 89.4232 94.1963 89.6602 93.9889 89.8676C81.811 103.675 66.5516 110.105 48.1515 108.534C36.0921 107.497 25.6328 102.638 16.7734 94.3714C16.6253 94.2232 16.4475 94.0751 16.2697 93.9269C16.2105 93.8677 16.1512 93.8676 15.9734 93.7491C15.9734 94.0751 15.9142 94.3417 15.9438 94.5788C16.0031 95.0825 16.0623 95.6158 16.1216 96.1195C16.329 97.8973 15.8253 98.8158 14.6401 98.964C13.4549 99.1121 12.7734 98.2529 12.5956 96.5047C12.2993 93.8973 11.9734 91.2898 11.7067 88.6824C11.529 86.9639 12.3882 86.1935 14.0771 86.4898C16.6846 86.9639 19.292 87.438 21.929 87.912C22.1957 87.9713 22.4328 88.0009 22.6698 88.0898C23.6179 88.3861 24.1217 89.2454 23.8846 90.1639C23.6476 91.1121 22.9661 91.6158 21.9883 91.4973C20.8624 91.3787 19.7364 91.1417 18.6105 90.9343C22.4328 94.9936 26.8476 98.1344 31.7958 100.445C52.2404 110.046 75.8258 105.097 90.7 88.1491C91.0555 87.7343 91.4111 87.2898 91.7963 86.9046C92.5963 86.2528 93.5741 86.2231 94.2556 86.875ZM29.9884 55.4673C29.8995 68.2082 40.3292 78.7268 53.07 78.8157C65.8998 78.9046 76.4184 68.5045 76.4776 55.7044C76.5369 42.8746 66.1368 32.4153 53.2775 32.356C40.5662 32.2671 30.0773 42.6672 29.9884 55.4673ZM53.3071 35.882C64.1516 35.9412 72.9517 44.771 72.9221 55.6155C72.8924 66.4304 64.0331 75.2897 53.2182 75.2601C42.3737 75.2601 33.544 66.4008 33.544 55.5859C33.544 44.7117 42.4625 35.8227 53.3071 35.882Z" fill="#CDAE64"/>
</svg>
