<svg width="110" height="111" viewBox="0 0 110 111" fill="none" xmlns="http://www.w3.org/2000/svg">
<path d="M109.805 59.235C109.833 58.874 109.917 58.5407 110 58.1797C110 56.0413 110 53.8752 110 51.7369C109.722 49.6541 109.528 47.5713 109.139 45.4884C106.056 29.0204 97.3086 16.4402 83.0622 7.72021C75.7307 3.22135 67.6772 0.749749 59.0682 0.166563C58.7905 0.138793 58.5128 0.0554802 58.2351 -6.12698e-05C56.0135 -6.12698e-05 53.7918 -6.12698e-05 51.5701 -6.12698e-05C49.7095 0.249876 47.8211 0.499812 45.9604 0.77752C40.0453 1.72173 34.4911 3.66568 29.1869 6.41498C28.4371 6.80378 27.5207 6.99817 26.6598 7.02594C24.9102 7.10925 23.1606 7.05371 21.2445 7.05371C21.2445 4.63766 21.2445 2.30491 21.2445 -0.027832C17.7731 -6.12698e-05 14.274 -6.12698e-05 10.7471 -6.12698e-05C10.7193 0.4165 10.6638 0.860832 10.6638 1.27739C10.6638 7.97015 10.6916 14.6629 10.636 21.3557C10.636 22.0499 10.3861 22.8553 9.9973 23.4107C5.16519 30.2978 2.02709 37.8793 0.721867 46.1549C-1.08323 57.5132 0.360847 68.5104 5.49844 78.8411C13.1076 94.115 25.2157 104.029 41.7671 108.306C52.4866 111.083 63.095 110.416 73.5368 106.723C74.2589 106.473 74.8143 106.473 75.5085 106.89C83.7009 111.694 94.3093 110.778 101.585 104.64C101.669 104.585 101.724 104.474 101.891 104.307C101.169 103.474 100.419 102.613 99.6413 101.696C94.6981 105.723 89.1162 107.223 82.9511 105.973C77.9246 104.973 73.9534 102.252 70.9541 98.114C65.4555 90.5326 66.5108 79.3132 73.3424 72.8982C80.7572 65.9555 91.7822 65.5667 99.3914 71.8984C107.112 78.3413 109.028 90.1994 102.168 99.1416C103.029 99.8358 103.918 100.558 104.862 101.308C106.64 99.1693 107.917 96.8644 108.722 94.2817C109.25 92.5877 109.583 90.8381 110 89.1163C110 87.6722 110 86.2559 110 84.8118C109.417 82.5624 108.861 80.3407 108.223 78.1191C108.028 77.397 107.695 76.7028 107.251 76.0918C106.473 75.0088 106.528 74.0368 106.973 72.8149C108.556 68.4549 109.472 63.9005 109.805 59.235ZM21.3833 10.7195C22.5219 10.7195 23.605 10.7195 24.8269 10.7195C24.8269 21.3557 24.8269 31.9085 24.8269 42.4892C23.6605 42.4892 22.5775 42.4892 21.3833 42.4892C21.3833 31.9085 21.3833 21.3557 21.3833 10.7195ZM14.3018 3.63791C15.4404 3.63791 16.5512 3.63791 17.7176 3.63791C17.7176 16.6069 17.7176 29.5203 17.7176 42.517C16.5234 42.517 15.4404 42.517 14.3018 42.517C14.3018 29.5758 14.3018 16.6346 14.3018 3.63791ZM10.6916 29.4647C10.6916 34.9911 10.6916 40.4897 10.6916 46.0716C23.7161 46.0716 36.6295 46.0716 49.5984 46.0716C49.5984 40.1842 49.5984 34.3246 49.5984 28.3539C47.2379 28.3539 44.9885 28.3539 42.6002 28.3539C42.6002 25.9934 42.6002 23.6884 42.6002 21.3001C40.1841 21.3001 37.9069 21.3001 35.5186 21.3001C35.5186 18.9118 35.5186 16.6069 35.5186 14.1908C33.1026 14.1908 30.7976 14.1908 28.3815 14.1908C28.3815 13.191 28.3538 12.3024 28.4093 11.4137C28.4371 11.1638 28.687 10.8583 28.9092 10.7195C34.7966 7.24811 41.1283 5.02645 47.9044 4.11001C49.6262 3.88785 51.3757 3.74899 53.1808 3.58237C53.1808 20.1893 53.1808 36.6296 53.1808 53.1532C36.7128 53.1532 20.2725 53.1532 3.66557 53.1532C3.97105 44.6553 6.19271 36.7684 10.6916 29.4647ZM28.4649 42.4892C28.4649 34.2691 28.4649 26.0767 28.4649 17.8288C29.6035 17.8288 30.7143 17.8288 31.9084 17.8288C31.9084 26.0211 31.9084 34.2135 31.9084 42.4892C30.7143 42.4892 29.6035 42.4892 28.4649 42.4892ZM35.5464 42.4892C35.5464 36.6296 35.5464 30.8255 35.5464 24.9103C36.7406 24.9103 37.8514 24.9103 39.0178 24.9103C39.0178 30.7977 39.0178 36.6018 39.0178 42.4892C37.8236 42.4892 36.7128 42.4892 35.5464 42.4892ZM42.6557 42.4614C42.6557 39.0179 42.6557 35.5743 42.6557 31.9919C43.8221 31.9919 44.9052 31.9919 46.0993 31.9919C46.0993 35.491 46.0993 38.9345 46.0993 42.4614C44.9607 42.4614 43.8499 42.4614 42.6557 42.4614ZM53.1808 106.223C28.1872 106.223 4.22098 84.4786 3.69334 56.8189C20.1336 56.8189 36.6017 56.8189 53.1808 56.8189C53.1808 73.3148 53.1808 89.755 53.1808 106.223ZM97.4474 25.8267C90.7825 32.464 84.2286 39.0456 77.6191 45.6273C78.5911 46.5437 79.3965 47.3213 80.2851 48.1822C86.5891 41.8505 92.9486 35.491 99.5025 28.9371C100.641 31.4087 101.752 33.6859 102.752 35.9908C102.863 36.2408 102.585 36.7684 102.335 37.0184C99.3914 39.9898 96.4199 42.9613 93.4762 45.905C91.2823 48.0989 89.0884 50.3206 86.839 52.4867C86.4502 52.8477 85.8115 53.1532 85.2839 53.1532C82.3124 53.2087 79.3409 53.1809 76.3694 53.1809C76.0917 53.1809 75.814 53.1809 75.2864 53.1809C76.1195 52.2923 76.786 51.6258 77.4803 50.9037C76.6194 50.0984 75.814 49.3208 74.8976 48.4877C73.6479 49.7374 72.3149 51.0148 71.0652 52.3756C70.482 53.0143 69.8711 53.2365 69.0102 53.2087C65.8721 53.1532 62.734 53.1809 59.7347 53.1809C70.732 42.1837 81.7292 31.1865 92.8375 20.0782C94.2816 21.9111 95.8367 23.855 97.4474 25.8267ZM56.8188 3.63791C61.2066 3.74899 65.4278 4.47103 69.4545 5.66517C65.2334 9.88633 61.0122 14.1075 56.8188 18.3009C56.8188 13.5521 56.8188 8.63665 56.8188 3.63791ZM56.7633 45.1274C56.7633 43.3501 56.3467 41.3784 56.9577 39.8232C57.5686 38.3236 59.2626 37.2683 60.5123 36.0186C66.1498 30.3812 71.7873 24.7437 77.4247 19.1062C77.7024 18.8285 77.9524 18.5508 78.2578 18.2453C77.3969 17.4677 76.5916 16.7179 75.6752 15.857C69.5101 22.0222 63.2616 28.2706 56.7633 34.7689C56.7633 32.0474 56.9299 29.6591 56.7077 27.2986C56.4856 24.7992 57.3187 23.0774 59.1516 21.3557C63.8448 16.9401 68.3159 12.3024 72.8425 7.72021C73.398 7.16479 73.8145 7.08148 74.481 7.4425C76.5916 8.49779 78.7299 9.46977 81.146 10.6084C79.9519 11.6359 79.0077 12.469 77.9801 13.3577C78.9521 14.2463 79.7575 14.9961 80.5906 15.7737C81.5626 14.7184 82.6179 13.5798 83.812 12.3302C86.0614 14.1075 88.0332 15.7182 89.9493 17.2178C78.841 28.3261 67.816 39.3511 56.7633 50.4039C56.7633 48.6543 56.7355 46.877 56.7633 45.1274ZM103.779 71.2042C98.3083 65.7056 91.81 63.2062 84.173 64.0671C78.841 64.6503 74.2589 66.983 70.482 70.7876C68.2881 73.0093 66.6497 75.5642 65.4833 78.4801C64.3447 81.3405 63.817 84.312 63.8726 87.3945C63.9281 90.5049 64.5946 93.5041 65.8721 96.3367C67.1495 99.1138 68.8991 101.558 71.2318 103.807C66.483 105.418 61.762 106.223 56.8188 106.39C56.8188 89.8661 56.8188 73.3981 56.8188 56.8467C73.2869 56.8467 89.7272 56.8467 106.334 56.8467C106.195 61.7343 105.362 66.4554 103.779 71.2042ZM91.7822 53.1809C95.9201 49.0431 100.169 44.8219 104.362 40.6008C105.529 44.5165 106.251 48.7376 106.362 53.1809C101.308 53.1809 96.4199 53.1809 91.7822 53.1809ZM85.145 99.9469C85.1728 99.3082 84.9784 99.0305 84.3674 98.7805C81.5626 97.6697 79.7297 94.9482 79.9796 92.2822C81.0627 92.2822 82.1735 92.2822 83.2844 92.2822C83.3677 92.6154 83.451 92.9209 83.5343 93.2264C84.0619 94.9482 85.7004 96.0312 87.3944 95.7535C89.1995 95.4758 90.477 93.9762 90.4214 92.1711C90.3937 90.366 89.0607 88.8664 87.2278 88.7553C85.145 88.6164 83.2844 88.061 81.8125 86.5336C78.3689 82.9234 79.5631 77.0638 84.173 75.1476C84.8951 74.8421 85.145 74.5089 85.1172 73.7591C85.0617 72.8704 85.1172 71.9818 85.1172 71.0375C86.3391 71.0375 87.4222 71.0375 88.6997 71.0375C88.6997 72.0373 88.7274 73.0093 88.6997 73.9812C88.6719 74.5922 88.8941 74.8421 89.4495 75.0643C92.2543 76.1751 93.8928 78.5356 93.9483 81.5904C92.782 81.5904 91.6711 81.5904 90.5325 81.5904C90.2826 79.8409 89.4495 78.5634 87.6444 78.1746C85.6449 77.7303 83.7565 79.0911 83.4232 81.1461C83.1177 83.0345 84.534 84.9229 86.478 85.0895C88.6719 85.2839 90.6992 85.8394 92.1988 87.5889C95.4757 91.338 94.0872 97.0032 89.4495 98.8361C89.2273 98.9194 88.9774 99.0305 88.6997 99.1416C88.6997 100.336 88.6997 101.558 88.6997 102.835C87.5055 102.835 86.3947 102.835 85.1172 102.835C85.145 101.835 85.1172 100.891 85.145 99.9469ZM71.0374 85.2006C72.2038 85.2006 73.3147 85.2006 74.481 85.2006C74.481 86.367 74.481 87.4501 74.481 88.6164C73.3424 88.6164 72.2316 88.6164 71.0374 88.6164C71.0374 87.5056 71.0374 86.3948 71.0374 85.2006ZM102.835 85.2006C102.835 86.3392 102.835 87.4501 102.835 88.6442C101.696 88.6442 100.613 88.6442 99.4192 88.6442C99.4192 87.5334 99.4192 86.4225 99.4192 85.2006C100.558 85.2006 101.669 85.2006 102.835 85.2006ZM22.1331 85.6727C29.1036 78.7023 36.1296 71.6763 43.2389 64.567C43.8776 65.2612 44.6552 66.0666 45.4328 66.9275C38.4346 73.9257 31.4086 80.9517 24.4381 87.9222C23.6605 87.2001 22.8552 86.3948 22.1331 85.6727ZM26.5487 74.5089C29.4091 74.5644 31.9084 72.1484 31.9362 69.2324C31.9917 66.3998 29.659 63.9838 26.7431 63.8727C23.9105 63.7616 21.3555 66.1777 21.3 69.0936C21.2445 71.9262 23.6605 74.4256 26.5487 74.5089ZM26.5765 67.4273C27.5484 67.3996 28.3538 68.1772 28.3538 69.1491C28.3538 70.1211 27.604 70.8987 26.6042 70.8987C25.66 70.8987 24.9102 70.1767 24.8824 69.2324C24.8824 68.2327 25.6045 67.4551 26.5765 67.4273ZM40.7951 78.0358C37.9347 78.0635 35.5464 80.4241 35.4909 83.2844C35.4353 86.1448 37.8792 88.6442 40.7673 88.672C43.6555 88.6997 46.1271 86.2559 46.1271 83.3678C46.1548 80.4796 43.6832 78.0358 40.7951 78.0358ZM40.7951 85.0895C39.7953 85.0895 39.0733 84.312 39.1011 83.3122C39.1288 82.368 39.8509 81.646 40.7951 81.6182C41.7671 81.5904 42.5724 82.368 42.5724 83.3678C42.5446 84.3397 41.7948 85.0895 40.7951 85.0895Z" fill="#CDAE64"/>
</svg>
