<svg width="110" height="111" viewBox="0 0 110 111" fill="none" xmlns="http://www.w3.org/2000/svg">
<path d="M49.5432 9.92789C48.625 8.95232 47.9077 8.1776 47.1903 7.40288C49.5432 4.99264 51.9821 2.49632 54.3923 0C54.8227 0 55.2531 0 55.6835 0C58.0938 2.46763 60.504 4.96395 62.943 7.48896C62.2543 8.1489 61.4796 8.92362 60.5327 9.84181C59.3563 8.5793 58.1512 7.3168 56.7739 5.88213C56.7739 11.506 56.7739 16.843 56.7739 22.266C55.5975 22.266 54.5071 22.266 53.302 22.266C53.302 16.9004 53.302 11.5347 53.302 6.16906C53.2159 6.11168 53.1298 6.08298 53.0438 6.0256C51.9247 7.3168 50.7483 8.608 49.5432 9.92789ZM102.626 47.1431C101.851 47.8605 101.076 48.5778 100.13 49.496C101.449 50.7011 102.741 51.8775 104.032 53.054C103.974 53.14 103.946 53.2261 103.888 53.3122C98.5227 53.3122 93.157 53.3122 87.7627 53.3122C87.7627 54.5173 87.7627 55.6077 87.7627 56.7841C93.1857 56.7841 98.5227 56.7841 104.147 56.7841C102.712 58.1327 101.449 59.3378 100.158 60.5142C101.105 61.4611 101.88 62.2358 102.54 62.9245C105.065 60.4855 107.532 58.0753 110 55.6651C110 55.2346 110 54.8042 110 54.3738C107.561 51.9349 105.065 49.5247 102.626 47.1431ZM41.2795 39.5394C41.2795 38.4777 41.2795 37.4735 41.2795 36.4405C41.3082 33.0834 43.4315 30.9601 46.8173 30.9601C52.2977 30.9601 57.7782 30.9601 63.2586 30.9601C66.6731 30.9601 68.7964 33.1121 68.7964 36.5553C68.7964 37.5022 68.7964 38.4777 68.7964 39.5681C72.67 39.5681 76.4001 39.5681 80.1016 39.5681C82.024 39.5681 82.5405 40.0846 82.5405 41.9783C82.5405 45.1633 82.6553 48.3483 82.4831 51.5332C82.397 53.0253 81.7371 54.4599 81.3641 55.9233C81.1919 56.5832 80.8476 57.2432 80.8476 57.9318C80.8189 63.0392 80.8189 68.1753 80.8189 73.2828C80.8189 75.1191 80.2737 75.6643 78.466 75.6643C62.8569 75.6643 47.2477 75.6643 31.6385 75.6643C29.8022 75.6643 29.257 75.1191 29.257 73.3114C29.257 68.0893 29.257 62.8671 29.2283 57.6449C29.2283 57.1571 29.0561 56.5832 28.8266 56.1528C28.0232 54.7469 27.5641 53.2835 27.5354 51.6767C27.5354 48.3483 27.5354 45.0198 27.5354 41.6914C27.5354 40.228 28.138 39.5968 29.63 39.5968C33.4749 39.5394 37.2911 39.5394 41.2795 39.5394ZM77.347 59.51C74.5351 60.6003 71.637 60.0838 68.7964 60.1699C65.9558 60.2273 63.1151 60.1986 60.2171 60.1986C60.2171 61.3463 60.2171 62.3506 60.2171 63.3549C60.1884 64.7034 59.5858 65.3347 58.2373 65.3634C56.1139 65.3921 54.0193 65.3921 51.896 65.3634C50.5187 65.3634 49.9162 64.7034 49.8875 63.2975C49.8875 62.2932 49.8875 61.3176 49.8875 60.2273C49.371 60.2273 48.9406 60.2273 48.5389 60.2273C43.288 60.0264 38.0085 60.7151 32.7863 59.7395C32.7863 63.8713 32.7863 68.0606 32.7863 72.1637C47.7068 72.1637 62.5126 72.1637 77.347 72.1637C77.347 67.8884 77.347 63.7566 77.347 59.51ZM56.6878 61.8341C56.6878 59.51 56.6878 57.2719 56.6878 55.0625C55.5401 55.0625 54.4784 55.0625 53.3881 55.0625C53.3881 57.3293 53.3881 59.5673 53.3881 61.8341C54.5071 61.8341 55.5688 61.8341 56.6878 61.8341ZM44.7227 39.482C51.6665 39.482 58.4668 39.482 65.3245 39.482C65.3245 38.3056 65.3532 37.1865 65.3245 36.0962C65.2671 35.0919 64.6359 34.432 63.6029 34.4033C57.8929 34.3746 52.1543 34.3746 46.4443 34.4033C45.4113 34.4033 44.7801 35.0632 44.7227 36.0962C44.694 37.2152 44.7227 38.3056 44.7227 39.482ZM30.9786 43.0687C30.9786 45.8232 30.9786 48.4917 30.9786 51.1889C30.9786 54.6034 33.1306 56.7267 36.5451 56.7267C40.6195 56.7267 44.694 56.7267 48.7971 56.7267C49.1415 56.7267 49.4858 56.698 49.8875 56.6693C49.8875 55.5503 49.8588 54.5173 49.8875 53.4844C49.9162 52.2219 50.5474 51.5906 51.8386 51.5619C53.9619 51.5332 56.0566 51.5332 58.1799 51.5619C59.5858 51.5619 60.1884 52.1932 60.2171 53.5991C60.2171 54.6321 60.2171 55.6364 60.2171 56.698C65.0376 56.698 69.6859 56.7554 74.3342 56.6693C76.8018 56.6406 78.9538 54.5747 79.0686 52.0784C79.2121 49.0943 79.0973 46.0815 79.0973 43.0113C62.9716 43.0687 47.0182 43.0687 30.9786 43.0687ZM80.3885 32.2226C84.4916 28.0908 88.5948 23.9876 92.8701 19.6836C92.8701 21.893 92.8701 23.8155 92.8701 25.7666C94.0465 25.7666 95.1082 25.7666 96.2559 25.7666C96.2559 22.266 96.2846 18.7941 96.2272 15.3509C96.1985 14.3754 95.4812 13.8302 94.4769 13.8015C93.2144 13.7728 91.9806 13.8015 90.7181 13.8015C88.5948 13.8015 86.4428 13.8015 84.2908 13.8015C84.2908 15.0066 84.2908 16.097 84.2908 17.2734C86.2706 17.2734 88.1931 17.2734 90.4312 17.2734C86.0985 21.5774 81.9953 25.6805 77.8922 29.755C78.753 30.5584 79.499 31.3331 80.3885 32.2226ZM96.2846 84.301C95.0795 84.301 93.9891 84.301 92.784 84.301C92.784 86.3095 92.784 88.232 92.784 90.1544C92.6979 90.1831 92.6118 90.2405 92.5258 90.2692C88.4226 86.1661 84.3482 82.0916 80.4172 78.1319C79.6138 78.8493 78.8104 79.5666 77.8348 80.4274C81.9666 84.5305 86.0411 88.605 90.2303 92.7942C88.1931 92.7942 86.2993 92.7942 84.3195 92.7942C84.3195 94.0567 84.3195 95.1471 84.3195 96.2374C87.734 96.2374 91.0624 96.2661 94.3908 96.2374C95.596 96.2374 96.2272 95.5775 96.2559 94.3723C96.2846 93.3968 96.2559 92.4499 96.2559 91.4743C96.2846 89.0928 96.2846 86.7112 96.2846 84.301ZM13.7913 25.7379C14.9964 25.7379 16.0868 25.7379 17.2632 25.7379C17.2632 23.7581 17.2632 21.8356 17.2632 19.7123C21.5098 23.9589 25.5842 28.0334 29.6874 32.1365C30.5482 31.2757 31.3229 30.5297 32.2124 29.6402C28.0806 25.5371 23.9774 21.4626 19.7308 17.1873C21.8828 17.1873 23.834 17.1873 25.7851 17.1873C25.7851 16.0109 25.7851 14.9492 25.7851 13.7728C22.3419 13.7728 19.0135 13.7728 15.6851 13.7728C14.4799 13.7728 13.82 14.4327 13.82 15.6379C13.7913 17.5316 13.82 19.4254 13.82 21.3191C13.7913 22.8112 13.7913 24.2746 13.7913 25.7379ZM29.63 77.7876C25.4982 81.9194 21.4237 85.9939 17.2058 90.2118C17.2058 88.1172 17.2058 86.1661 17.2058 84.2149C16.0294 84.2149 14.9964 84.2149 13.82 84.2149C13.82 87.572 13.82 90.8144 13.82 94.0567C13.82 95.6062 14.4225 96.2087 15.972 96.2087C18.9848 96.2087 21.9976 96.2087 24.9817 96.2087C25.2399 96.2087 25.5269 96.1513 25.7851 96.1226C25.7851 94.9749 25.7851 93.9133 25.7851 92.7368C23.8053 92.7368 21.8541 92.7368 19.6447 92.7368C23.9487 88.4328 28.0232 84.3584 32.0689 80.3413C31.2368 79.5379 30.4908 78.7632 29.63 77.7876ZM6.21625 56.698C11.5819 56.698 16.9763 56.698 22.3419 56.698C22.3419 55.5216 22.3419 54.4599 22.3419 53.2548C16.9189 53.2548 11.5532 53.2548 6.18756 53.2548C6.13017 53.1687 6.07279 53.054 6.0154 52.9679C7.27791 51.7628 8.54041 50.5576 9.80292 49.3525C8.99951 48.5491 8.25348 47.8031 7.47876 47.0284C5.12591 49.3525 2.74436 51.648 0.448895 53.9721C-0.182358 54.6034 -0.124971 55.4929 0.477589 56.1241C2.74436 58.4483 5.06852 60.7151 7.36399 62.9818C8.1674 62.1784 8.97081 61.4324 9.83161 60.6003C8.54041 59.3952 7.27791 58.2188 6.04409 57.071C6.10148 56.9563 6.15887 56.8128 6.21625 56.698ZM56.7452 104.071C56.7452 98.4755 56.7452 93.1098 56.7452 87.7442C55.5401 87.7442 54.4497 87.7442 53.302 87.7442C53.302 93.1672 53.302 98.5042 53.302 103.841C53.2159 103.899 53.1585 103.927 53.0725 103.985C51.9247 102.693 50.7483 101.402 49.6293 100.197C48.6537 101.115 47.8503 101.861 46.9895 102.665C48.9119 104.587 50.777 106.452 52.6421 108.317C54.9662 110.641 55.1384 110.641 57.4912 108.289C59.3563 106.424 61.2214 104.558 62.9716 102.808C62.1682 101.919 61.4509 101.115 60.5614 100.111C59.2989 101.402 58.0938 102.665 56.7452 104.071Z" fill="#CDAE64"/>
</svg>
