<svg width="157" height="43" viewBox="0 0 157 43" fill="none" xmlns="http://www.w3.org/2000/svg">
<path d="M156.774 0.716797H148.775V42.035H156.774V0.716797Z" fill="white"/>
<path d="M133.92 16.7109L132.968 15.5685C132.397 14.9973 131.254 14.2356 129.921 13.474C128.397 12.7124 126.874 12.522 125.35 12.522C121.541 12.522 118.303 14.0452 115.447 16.9013C112.59 19.7574 111.257 23.3751 111.257 27.5641C111.257 31.753 112.59 35.3707 115.447 38.2268C118.303 41.0829 121.541 42.6062 125.35 42.6062C126.493 42.6062 127.445 42.4158 128.397 42.2254C129.349 41.8446 130.111 41.6541 130.873 41.2733C131.444 40.8925 132.016 40.5117 132.587 39.9405C133.158 39.5597 133.539 39.1789 133.539 38.9885C133.73 38.7981 133.92 38.6076 133.92 38.6076V42.2254H141.919V0.716797H133.92V16.7109ZM131.825 33.2763C130.492 34.7995 128.778 35.5611 126.874 35.5611C124.969 35.5611 123.255 34.7995 121.922 33.2763C120.589 31.753 119.827 29.849 119.827 27.5641C119.827 25.2792 120.589 23.3751 121.922 21.8519C123.255 20.3286 124.969 19.567 126.874 19.567C128.778 19.567 130.492 20.3286 131.825 21.8519C133.158 23.3751 133.92 25.2792 133.92 27.5641C133.92 29.849 133.349 31.753 131.825 33.2763Z" fill="white"/>
<path d="M95.4493 12.522C93.9257 12.522 92.4021 12.9028 90.8786 13.6644C89.355 14.426 88.5932 14.9973 88.0218 15.5685C87.6409 15.9493 87.2601 16.3301 87.0696 16.7109V13.0932H79.0708V42.035H87.0696V26.9929C87.0696 24.8984 87.641 23.1847 88.5932 22.0423C89.7359 20.8998 91.069 20.3286 92.9735 20.3286C94.6875 20.3286 96.0207 20.8998 96.9729 22.0423C98.1156 23.1847 98.4965 24.5176 98.4965 26.2312V42.2254H106.495V25.4696C106.495 21.6615 105.543 18.4246 103.448 16.1397C101.544 13.6644 98.6869 12.522 95.4493 12.522Z" fill="white"/>
<path d="M64.4065 13.0932V16.7109L63.4542 15.5685C62.8829 14.9973 61.7402 14.2356 60.4071 13.474C59.0739 12.7124 57.3599 12.522 55.6459 12.522C51.8369 12.522 48.5993 14.0452 45.7426 16.9013C42.8859 19.7574 41.5527 23.3751 41.5527 27.5641C41.5527 31.753 42.8859 35.3707 45.7426 38.2268C48.5993 41.0829 51.8369 42.6062 55.6459 42.6062C56.7886 42.6062 57.7408 42.4158 58.693 42.2254C59.6453 41.8445 60.4071 41.6541 61.1689 41.2733C61.9307 40.8925 62.3116 40.5117 62.8829 39.9405C63.4542 39.5597 63.8351 39.1789 63.8351 38.9884C64.0256 38.798 64.216 38.6076 64.216 38.6076V42.2254H72.2148V13.0932H64.4065ZM62.3115 33.2763C60.9784 34.7995 59.2644 35.5611 57.3599 35.5611C55.4554 35.5611 53.7414 34.7995 52.4083 33.2763C51.0751 31.753 50.3133 29.8489 50.3133 27.5641C50.3133 25.2792 51.0751 23.3751 52.4083 21.8519C53.7414 20.3286 55.4554 19.567 57.3599 19.567C59.2644 19.567 60.9784 20.3286 62.3115 21.8519C63.6447 23.3751 64.4065 25.2792 64.4065 27.5641C64.4065 29.8489 63.6447 31.753 62.3115 33.2763Z" fill="white"/>
<path d="M26.8883 17.2821H9.17664V0.716797H0.225586V42.035H9.17664V25.2792H26.8883V42.035H35.8393V0.716797H26.8883V17.2821Z" fill="white"/>
</svg>
