<svg width="247" height="36" viewBox="0 0 247 36" fill="none" xmlns="http://www.w3.org/2000/svg">
<path d="M114.628 25.3115C111.415 25.3115 108.923 23.0164 108.923 19.4098C108.923 15.8033 111.415 13.5082 114.628 13.5082C117.841 13.5082 120.333 15.8033 120.333 19.4098C120.333 23.0164 117.841 25.3115 114.628 25.3115ZM115.152 9.83606C112.529 9.83606 110.3 10.6885 108.792 12.5246V10.0328H104.529V35.6066H108.988V26.5574C110.562 28.2623 112.66 29.1148 115.152 29.1148C120.726 29.1148 124.857 25.3115 124.857 19.4754C124.857 13.6393 120.726 9.83606 115.152 9.83606Z" fill="#CDAE64"/>
<path d="M134.365 25.9016C132.07 25.9016 130.693 24.8525 130.693 23.2787C130.693 21.9016 131.545 20.7869 134.562 20.7869H139.218V22.9508C138.431 24.918 136.529 25.9016 134.365 25.9016ZM134.955 9.83606C131.873 9.83606 128.857 10.6229 126.824 12.1311L128.595 15.3443C130.037 14.1639 132.267 13.5082 134.431 13.5082C137.644 13.5082 139.218 15.0164 139.218 17.5738V17.8361H134.234C128.398 17.8361 126.234 20.3279 126.234 23.4098C126.234 26.6885 128.988 29.0492 133.381 29.0492C136.267 29.0492 138.365 28.1311 139.414 26.4918V28.8525H143.677V17.8361C143.677 12.3934 140.463 9.83606 134.955 9.83606Z" fill="#CDAE64"/>
<path d="M152.463 12.7869V10.0328H148.201V28.8525H152.66V19.7377C152.66 15.9344 154.824 13.9672 158.234 13.9672C158.562 13.9672 158.89 14.0328 159.283 14.0984V9.83606C156.07 9.83606 153.709 10.8197 152.463 12.7869Z" fill="#CDAE64"/>
<path d="M168.464 25.9016C166.169 25.9016 164.792 24.8525 164.792 23.2787C164.792 21.9016 165.644 20.7869 168.66 20.7869H173.316V22.9508C172.529 24.918 170.628 25.9016 168.464 25.9016ZM169.054 9.83606C165.972 9.83606 162.955 10.6229 160.923 12.1311L162.693 15.3443C164.136 14.1639 166.365 13.5082 168.529 13.5082C171.742 13.5082 173.316 15.0164 173.316 17.5738V17.8361H168.333C162.496 17.8361 160.333 20.3279 160.333 23.4098C160.333 26.6885 163.087 29.0492 167.48 29.0492C170.365 29.0492 172.464 28.1311 173.513 26.4918V28.8525H177.775V17.8361C177.775 12.3934 174.562 9.83606 169.054 9.83606Z" fill="#CDAE64"/>
<path d="M191.218 24.2623C187.808 24.2623 185.382 22.0983 185.382 18.8852C185.382 15.7377 187.808 13.5737 191.218 13.5737C194.562 13.5737 197.054 15.7377 197.054 18.8852C197.054 22.0983 194.628 24.2623 191.218 24.2623ZM197.185 10.0983V12.5901C195.612 10.7541 193.251 9.90161 190.562 9.90161C185.054 9.90161 180.857 13.5082 180.857 18.9508C180.857 24.3934 185.054 28.0656 190.562 28.0656C193.12 28.0656 195.415 27.2787 196.989 25.5737V26.5574C196.989 30.3606 195.153 32.2623 190.89 32.2623C188.202 32.2623 185.513 31.4098 183.808 30.0328L181.775 33.3115C183.939 35.0819 187.546 36 191.087 36C197.775 36 201.448 32.918 201.448 26.0983V10.0983H197.185Z" fill="#CDAE64"/>
<path d="M214.759 25.3115C211.546 25.3115 209.054 23.0164 209.054 19.4098C209.054 15.8033 211.48 13.5082 214.759 13.5082C218.038 13.5082 220.464 15.8033 220.464 19.4098C220.464 23.0164 218.038 25.3115 214.759 25.3115ZM214.759 29.1148C220.726 29.1148 224.988 25.1148 224.988 19.4754C224.988 13.8361 220.726 9.83606 214.759 9.83606C208.857 9.83606 204.529 13.8361 204.529 19.4098C204.529 24.9836 208.857 29.1148 214.759 29.1148Z" fill="#CDAE64"/>
<path d="M238.89 9.83606C236.07 9.83606 233.775 10.7541 232.267 12.459V10.0328H228.005V28.8525H232.464V19.3443C232.464 15.6066 234.628 13.7049 237.841 13.7049C240.726 13.7049 242.431 15.3443 242.431 18.6885V28.8525H246.89V18.0984C246.89 12.3934 243.48 9.83606 238.89 9.83606Z" fill="#CDAE64"/>
<path d="M58.7583 26.0984V28.5902C57.5124 28.8525 56.4633 28.9837 55.6764 28.9837C53.7092 28.9837 52.1354 28.4591 51.0862 27.4755C49.9715 26.4919 49.4469 24.9837 49.4469 22.9509V12.6558H46.2993V10.0328H49.4469V4.91809H52.3977V9.96727H58.1682V12.5902H52.3977V22.6886C52.3977 23.9345 52.7256 24.8525 53.3813 25.4427C54.037 25.9673 55.0206 26.2296 56.3321 26.2296C56.9878 26.2951 57.8403 26.2296 58.7583 26.0984Z" fill="#CDAE64"/>
<path d="M78.4966 16.918V28.5902H75.5458V17.3115C75.5458 15.8033 75.1523 14.5574 74.2999 13.7049C73.4474 12.7869 72.3327 12.3279 70.9556 12.3279C69.513 12.3279 68.3983 12.7869 67.4802 13.7049C66.5622 14.623 66.1032 15.8689 66.1032 17.3115V28.5902H63.1523V0H66.1032V12.1312C67.4802 10.4262 69.3163 9.63935 71.6769 9.63935C73.7753 9.63935 75.4802 10.2951 76.6605 11.6066C77.8409 12.918 78.4966 14.6885 78.4966 16.918Z" fill="#CDAE64"/>
<path d="M99.808 20.1967H85.1194C85.3161 22.0328 86.0375 23.4754 87.2834 24.5901C88.5293 25.7049 90.103 26.295 91.9391 26.295C94.0375 26.295 95.9391 25.4426 97.644 23.8032L99.3489 25.7705C97.2506 27.9344 94.7588 28.9836 91.9391 28.9836C89.185 28.9836 86.8243 28.0655 84.9227 26.1639C83.0211 24.3278 82.103 22.0328 82.103 19.2787C82.103 16.5901 83.0211 14.295 84.8571 12.3934C86.6932 10.4918 88.9227 9.57373 91.6112 9.57373C94.0375 9.57373 96.0047 10.3606 97.644 11.9344C99.2834 13.5082 100.07 15.5409 100.07 17.9672C100.07 18.6885 99.9391 19.4098 99.808 20.1967ZM85.2506 17.5737H96.9883C96.9883 15.9344 96.3981 14.6229 95.4145 13.7049C94.3653 12.7213 93.0538 12.2623 91.4801 12.2623C89.9063 12.2623 88.5948 12.7213 87.4145 13.7049C86.2997 14.6885 85.5784 16 85.2506 17.5737Z" fill="#CDAE64"/>
<path d="M19.9569 10.5643C19.9115 10.655 20.0476 10.8363 19.9115 10.927C19.9569 11.2444 19.9115 11.5618 19.8662 11.8792C20.0022 11.9245 19.8662 12.0152 19.8662 12.0605C19.8662 12.1512 19.8662 12.2419 19.8209 12.3326C19.8662 12.3779 19.8209 12.5139 19.8662 12.6046C19.9115 12.786 19.8662 12.8767 19.8209 13.0127C19.8662 13.4207 19.8209 13.8288 19.7302 14.2369C19.7755 14.3729 19.8209 14.4636 19.8209 14.6449C19.8209 14.8263 19.7302 14.7356 19.6848 14.8263C19.6848 14.8716 19.7302 14.9623 19.7302 15.053C19.7755 15.2797 19.7755 15.5064 19.7302 15.7331C19.7302 15.8691 19.7302 15.9598 19.6848 16.0958C19.6848 16.1411 19.6848 16.1865 19.6848 16.2318C19.6848 16.3225 19.7302 16.3678 19.6848 16.5039C19.6395 16.5945 19.5942 16.7306 19.6848 16.8212C19.7755 16.9119 19.7302 17.0479 19.6848 17.184L19.6395 17.1386C19.6395 17.184 19.5942 17.2293 19.5942 17.2746C19.5942 17.32 19.5942 17.3653 19.5942 17.3653C19.6848 17.5467 19.6395 17.7734 19.6848 17.9547C19.6395 18.0908 19.7302 18.3175 19.6395 18.4535C19.6395 18.4988 19.6395 18.5442 19.6395 18.5895C19.5942 18.6802 19.5942 18.8162 19.5035 18.7709V18.8162V18.8615C19.5035 18.9069 19.5035 18.9069 19.5035 18.9522C19.5035 19.0429 19.5035 19.1336 19.4581 19.1789C19.4581 19.2243 19.4581 19.2696 19.4581 19.2696C19.5035 19.3603 19.4581 19.451 19.4581 19.5416C19.4581 19.859 19.4581 20.2217 19.4581 20.5391C19.4581 20.5845 19.4581 20.6298 19.4581 20.6751C19.4581 20.6751 19.4581 20.6751 19.5035 20.6751C19.5035 20.7658 19.5488 20.8112 19.4581 20.8565C19.3675 20.9018 19.4581 20.9472 19.4581 20.9925C19.4581 21.1285 19.4581 21.3099 19.4581 21.4459C19.4581 21.6273 19.4581 21.7633 19.4581 21.9447C19.5488 22.1714 19.5035 22.3527 19.4581 22.5794C19.4581 22.6248 19.4581 22.6701 19.4581 22.7154C19.4581 22.8968 19.4581 23.1235 19.4581 23.3049V23.8036C19.4581 23.985 19.4581 24.1663 19.4581 24.3477C19.4581 24.5744 19.5035 24.7557 19.4128 24.9824C19.4128 25.1638 19.4128 25.3452 19.4128 25.5265C19.4128 25.5719 19.4128 25.6172 19.4128 25.6625C19.4581 25.7986 19.3675 25.8439 19.3675 25.9346C19.3675 25.9799 19.4128 25.9799 19.4128 26.0706C19.4128 26.1613 19.4128 26.252 19.4128 26.3426V26.4787C19.4581 26.4787 19.4581 26.4787 19.5035 26.4333C19.5035 26.4333 19.5488 26.4333 19.5488 26.4787C19.5035 26.5693 19.4128 26.5693 19.4581 26.7507C19.4581 26.796 19.5035 26.8414 19.5035 26.8867C19.5488 26.9774 19.5488 27.0681 19.5488 27.1588C19.5035 27.2948 19.6848 27.4308 19.5488 27.5668C19.5488 27.6122 19.5488 27.7028 19.5488 27.7482C19.5035 27.8389 19.6395 27.9749 19.5488 28.0656C19.5942 28.1562 19.5942 28.2469 19.5035 28.2923C19.5035 28.3376 19.5035 28.3829 19.5035 28.4283C19.5942 28.4736 19.5942 28.5643 19.5488 28.7003C19.5942 28.8363 19.5488 28.9724 19.5942 29.1084C19.5942 29.1537 19.5488 29.1991 19.5488 29.2444C19.5942 29.4258 19.5035 29.5164 19.5035 29.6978C19.5035 29.7431 19.5488 29.7885 19.5488 29.7885C19.5488 29.9698 19.5488 30.1059 19.5035 30.2872C19.5942 30.4233 19.5035 30.6046 19.5035 30.786C19.5035 30.8313 19.4581 30.8766 19.4581 30.922C19.4581 31.1487 19.5035 31.3754 19.4128 31.6021C19.4128 31.6928 19.4128 31.7835 19.3675 31.8288C19.3221 31.8288 19.3221 31.7835 19.3221 31.6928C19.2768 31.6928 19.1861 31.7381 19.1408 31.5568C19.0954 31.3754 19.0954 31.1034 19.0047 30.9673C18.9594 30.8313 18.8687 30.9673 18.8234 30.922C18.778 30.922 18.7327 30.922 18.6874 30.922C18.642 30.922 18.5967 30.922 18.5967 30.922C18.5967 30.9673 18.5513 30.9673 18.5513 30.922C18.5513 30.922 18.5513 30.8766 18.506 30.8766C18.506 30.8313 18.506 30.8313 18.506 30.786C18.4607 30.7406 18.4607 30.6953 18.4153 30.6499C18.37 30.7406 18.2793 30.6953 18.234 30.6953H18.1886C18.0979 30.786 18.0526 30.7406 17.9619 30.7406C17.9166 30.8313 17.8712 30.9673 17.8259 30.7406C17.8259 30.6953 17.7806 30.6046 17.7352 30.6499C17.6445 30.786 17.6445 30.6046 17.5992 30.5593C17.5992 30.5139 17.5539 30.5139 17.5539 30.4686C17.5085 30.3779 17.5539 30.2419 17.5085 30.1059C17.5085 30.1059 17.5085 30.1059 17.5085 30.0605C17.5085 30.0605 17.5085 30.0605 17.4632 30.0605C17.4632 30.0605 17.4632 30.0605 17.4632 30.0152C17.4178 30.0152 17.3725 30.0152 17.3725 30.0152C17.3725 29.9698 17.3725 29.9245 17.3725 29.8792C17.2818 29.8338 17.2365 29.7431 17.2365 29.6071C17.2365 29.4258 17.2818 29.4258 17.3272 29.3351C17.3272 29.2897 17.3272 29.2444 17.3272 29.1991C17.3272 29.1084 17.3272 29.1084 17.3725 29.1084C17.4178 29.1084 17.4178 29.1084 17.4178 29.1084C17.4632 29.063 17.4632 29.0177 17.4178 28.927C17.3272 28.927 17.3725 28.791 17.3725 28.7003C17.2818 28.655 17.3272 28.519 17.3272 28.4283C17.2365 28.2923 17.3725 28.2923 17.3725 28.2016C17.3725 28.1562 17.3272 28.1109 17.3272 28.0656C17.2818 28.0202 17.2818 27.9749 17.2365 27.9295C17.2365 27.9295 17.1911 28.0202 17.1911 27.9295C17.1911 27.8389 17.2365 27.7482 17.2818 27.7482V27.7028V27.6575C17.2818 27.5668 17.1911 27.5215 17.1911 27.4308C17.1911 27.4308 17.1911 27.4308 17.1911 27.3855V27.3401C17.2365 27.2948 17.1911 27.1588 17.2365 27.1588L17.2818 27.1134L17.2365 26.9774C17.1911 26.9321 17.1911 26.8414 17.1911 26.7507V26.7054C17.2365 26.66 17.1911 26.6147 17.1911 26.5693C17.1458 26.4787 17.1458 26.4333 17.1911 26.3426C17.2365 26.1613 17.1911 26.0253 17.1005 25.9799C17.1005 26.0253 17.1458 26.1159 17.1005 26.1613C17.1005 26.1613 17.0551 26.1159 17.0098 26.1159L16.9644 26.1613C16.9644 26.1159 16.9644 26.0253 16.9644 25.9799C16.9644 25.7986 17.0098 25.6625 17.0098 25.5265C17.0098 25.5265 17.0098 25.5265 16.9644 25.5265C16.9191 25.5265 16.9191 25.4812 16.9191 25.4358C16.8738 25.4812 16.8738 25.5719 16.8284 25.6172H16.7831C16.7831 25.6625 16.7831 25.7079 16.7831 25.7532C16.8284 25.7532 16.8284 25.7986 16.8284 25.8892C16.8284 26.1159 16.7831 26.2973 16.7831 26.524C16.7377 26.5693 16.7377 26.6147 16.7377 26.66C16.7831 26.7054 16.7831 26.7507 16.7377 26.796C16.7377 26.8867 16.7377 26.9774 16.7831 27.0681C16.7831 27.1134 16.7831 27.1134 16.7831 27.1588C16.7831 27.2041 16.8284 27.2494 16.8284 27.2948C16.8284 27.3401 16.8284 27.3401 16.8284 27.3855C16.8284 27.4308 16.7831 27.4308 16.7831 27.4761C16.7831 27.5668 16.8284 27.6575 16.7831 27.7482C16.7831 27.7935 16.7831 27.7935 16.7377 27.8389C16.7831 27.9749 16.7831 28.1109 16.7831 28.2469L16.8284 28.2923H16.8738C16.8738 28.2016 16.8738 28.1562 16.9191 28.1109C16.9644 28.1109 16.9644 28.1562 16.9644 28.2016C16.9644 28.3829 16.9644 28.519 16.9191 28.655C16.9191 28.791 16.7831 28.7457 16.8284 28.927C16.8284 28.927 16.8284 28.927 16.8738 28.927C16.9644 29.0177 16.9191 29.1084 16.8738 29.2444C16.8738 29.2897 16.8738 29.3804 16.8284 29.3804C16.8284 29.4258 16.8284 29.4258 16.7831 29.4711H16.7377C16.7377 29.6071 16.7377 29.7431 16.7377 29.8792C16.7377 29.9698 16.7377 30.1059 16.8284 30.0605C16.8738 30.1059 16.8284 30.1512 16.8738 30.1965C16.8738 30.4232 16.8738 30.6046 16.8284 30.8313C16.8284 30.8766 16.8284 30.922 16.8284 30.9673C16.8284 31.058 16.8284 31.1487 16.7831 31.2394C16.7831 31.3754 16.7377 31.5114 16.7377 31.6474C16.7377 31.7381 16.7377 31.8288 16.7377 31.9195C16.7377 32.0102 16.7377 32.0555 16.7377 32.1462C16.7377 32.3729 16.7377 32.5542 16.6471 32.6903C16.6017 32.6449 16.6017 32.917 16.5564 32.6903C16.511 32.7356 16.4204 32.7356 16.375 32.7809L16.3297 32.8263V32.8716C16.375 32.917 16.375 33.0076 16.375 33.0983C16.375 33.1437 16.375 33.2343 16.3297 33.2797C16.2843 33.2797 16.239 33.2797 16.239 33.2797C16.1483 33.4157 16.0576 33.461 15.967 33.4157C15.9216 33.4157 15.8763 33.461 15.8309 33.461C15.6949 33.461 15.7856 33.2343 15.6949 33.1437C15.6496 33.1437 15.6042 33.1437 15.6042 33.053C15.4682 33.2343 15.3322 33.0076 15.1962 33.0983C15.1055 33.053 15.0602 32.917 15.0602 32.7809C15.0148 32.5996 14.9241 32.5542 14.8335 32.6903C14.7881 33.053 14.6521 33.3704 14.6068 33.7784C14.6068 33.9144 14.5161 33.8691 14.4254 33.9144V33.9598C14.4254 34.1411 14.4254 34.3225 14.38 34.5039C14.2894 34.7306 14.2894 35.0933 14.108 35.184C14.0627 35.3653 14.0173 35.3653 13.972 35.184C13.8813 35.2746 13.836 35.2746 13.836 35.0026C13.836 34.9119 13.836 34.7759 13.836 34.6852C13.7906 34.6852 13.7906 34.7759 13.7453 34.6852C13.6546 34.6852 13.6093 34.6852 13.5186 34.6852C13.4732 35.0026 13.3372 34.8212 13.2465 34.8212C13.1559 34.8212 13.2465 34.5945 13.2465 34.5039C13.2465 34.4585 13.2012 34.4585 13.2012 34.4132C13.1105 34.3678 13.1105 34.7759 12.9745 34.6399C13.0652 34.5492 13.0652 34.3678 13.1559 34.2318C13.2012 34.1411 13.1559 34.0505 13.1105 34.0505C13.0198 34.0505 12.9745 33.9144 12.9292 33.7784C12.8838 33.5971 12.9292 33.4157 12.9745 33.2343C12.9745 33.189 13.0198 33.1437 13.0198 33.053C12.9745 32.7809 13.0198 32.4636 12.8838 32.1915C12.7931 32.0555 12.9292 31.8741 13.0652 31.8288V31.7835C13.0652 31.7381 12.9745 31.7381 13.0198 31.6474C12.9745 31.4661 12.9292 31.2847 12.9292 31.1033C12.9745 30.5593 12.8385 30.0152 12.7931 29.4711C12.7931 29.3351 12.8385 29.1991 12.7931 29.1084C12.7478 28.927 12.7478 28.7003 12.7931 28.519C12.7931 28.3376 12.8838 28.1109 12.7025 28.0656C12.6571 28.0202 12.6571 27.7935 12.7025 27.7028C12.8838 27.4761 12.8385 27.2041 12.7931 26.8867C12.6571 26.8414 12.6118 26.7507 12.6571 26.524C12.6571 26.3426 12.7025 26.1613 12.5211 26.1613C12.4758 26.1613 12.4758 26.0706 12.4758 25.9799C12.4758 25.7079 12.5211 25.3452 12.4758 25.1185C12.4304 24.7557 12.4758 24.4384 12.4758 24.121C12.4758 24.0303 12.4304 23.985 12.3851 23.985C12.2491 24.0303 12.2491 23.8943 12.2491 23.7583C12.2491 23.6222 12.2491 23.5316 12.1584 23.4409C12.0677 23.3955 12.0677 22.9875 12.1584 22.9421C12.2944 22.8968 12.2491 22.7154 12.2491 22.5794C12.2491 22.3527 12.2944 22.262 12.3851 22.1714V22.0353C12.2944 21.9447 12.2037 21.8086 12.113 21.8086C12.0677 21.8086 12.0677 21.7633 12.0677 21.6726C12.0677 21.3099 11.977 20.9472 12.0677 20.5845C12.113 20.3124 12.0224 20.0857 12.0224 19.8137C12.0224 19.6323 12.113 19.6323 12.1584 19.587C12.2491 19.4963 12.3397 19.3603 12.2037 19.2243C12.0677 19.0882 12.113 18.8162 12.113 18.6348C12.1584 18.1814 12.113 17.7734 12.113 17.32C12.113 17.184 12.113 17.0933 12.113 16.9573C12.113 16.6399 12.113 16.3225 12.0224 16.0505C11.977 15.8691 12.0224 15.6877 12.0224 15.5517C12.0677 15.2343 12.0224 14.9623 12.0677 14.6449C12.0677 14.4636 12.0677 14.3275 12.1584 14.1915C12.2491 14.0102 12.113 13.7835 12.1584 13.6021C12.113 13.6474 12.0224 13.8288 12.0677 13.5568C12.0677 13.2847 11.977 12.9673 12.1584 12.786V12.6953C12.0224 12.5593 12.0677 12.3326 12.0677 12.1512C12.0677 11.7885 12.0677 11.4258 12.0677 11.063C12.0677 10.791 12.0677 10.5643 12.1584 10.3829C12.0677 10.3829 12.0224 10.3376 12.0677 10.2016C12.0677 10.1109 12.0677 10.0656 12.113 10.0202C12.1584 10.0202 12.1584 10.0202 12.2037 10.0202C12.2037 9.83887 12.2491 9.65751 12.2037 9.47615C12.2037 9.43081 12.2037 9.34013 12.2037 9.29479C12.1584 8.84139 12.2037 8.47866 12.3397 8.0706C12.3851 7.97992 12.4304 7.93458 12.4304 7.8439C12.3851 7.75322 12.2491 7.75322 12.3851 7.57186C12.4304 7.52652 12.4304 7.48118 12.4304 7.3905C12.3851 7.1638 12.4758 6.9371 12.4304 6.75574C12.3851 6.66506 12.4304 6.57438 12.4304 6.52904C12.4304 6.43836 12.3851 6.34768 12.4758 6.34768C12.4758 6.34768 12.5211 6.43836 12.5211 6.4837C12.6118 6.43836 12.4758 6.21166 12.6118 6.21166C12.7025 5.98496 12.7478 5.75826 12.6571 5.53156C12.5664 5.3502 12.7025 5.25952 12.7025 5.1235C12.6571 4.80612 12.7478 4.62476 12.8385 4.4434C13.0198 4.53408 13.1559 4.2167 13.3372 4.30738C13.3826 4.30738 13.4279 4.39806 13.5186 4.35272C13.5639 4.30738 13.6093 4.2167 13.6093 4.08068C13.6093 3.99 13.5639 3.89932 13.6546 3.85398C13.7453 3.7633 13.7453 3.62728 13.7906 3.44592C13.7906 3.35524 13.836 3.26456 13.836 3.17388C13.8813 3.03786 13.9266 2.90184 13.972 2.76582C13.9266 2.67514 13.9266 2.6298 13.972 2.53912C14.108 2.44844 14.1987 2.35776 14.3347 2.26708C14.3347 2.26708 14.3347 2.26708 14.38 2.22174C14.4254 2.22174 14.4254 2.22174 14.4707 2.22174H14.5614C14.5614 2.31242 14.5614 2.35776 14.5614 2.44844C14.5614 2.8565 14.5614 3.3099 14.5614 3.71796C14.5614 3.7633 14.6068 3.7633 14.6068 3.80864C14.6521 3.80864 14.6521 3.80864 14.6974 3.80864C14.6974 3.71796 14.6974 3.62728 14.7428 3.5366C14.7881 3.44592 14.7881 3.35524 14.7428 3.26456C14.7428 2.99252 14.8335 2.90184 14.9695 3.03786C14.9695 2.8565 15.0602 2.76582 15.1055 2.72048C15.1508 2.67514 15.1962 2.6298 15.2415 2.58446C15.2869 2.58446 15.3775 2.58446 15.4229 2.58446C15.4682 2.58446 15.5136 2.53912 15.5589 2.6298C15.6496 2.6298 15.6496 2.81116 15.7403 2.81116C15.7856 2.81116 15.8309 2.81116 15.8763 2.81116C16.0123 2.76582 16.103 2.8565 16.1483 3.03786C16.3297 2.99252 16.4657 3.12854 16.6017 3.3099C16.6471 3.3099 16.6924 3.3099 16.6924 3.40058C16.7831 3.44592 16.8284 3.67262 16.9191 3.7633L16.9644 3.80864C17.0098 3.62728 17.0551 3.62728 17.0551 3.49126C17.0551 3.40058 17.0551 3.3099 17.1005 3.21922C17.1911 3.35524 17.2818 2.94718 17.4178 3.17388H17.4632C17.5539 3.12854 17.6899 3.12854 17.7352 3.35524C17.8259 3.40058 17.8712 3.21922 17.9166 3.17388C17.9166 3.0832 17.9166 2.94718 18.0073 2.94718C18.0073 2.72048 18.0526 2.72048 18.1433 2.81116C18.234 2.76582 18.2793 2.53912 18.4153 2.49378C18.4153 2.4031 18.506 2.4031 18.506 2.31242C18.5967 2.1764 18.7327 2.04038 18.8687 2.04038C18.9141 1.99504 18.9141 1.9497 18.9141 1.85902C18.9594 1.81368 19.0501 1.63232 19.0954 1.76834C19.1861 1.81368 19.2314 1.99504 19.1861 2.1764C19.2314 2.22174 19.3221 2.26708 19.3675 2.31242C19.5942 2.35776 19.6848 2.44844 19.7302 2.90184C19.7302 2.94718 19.7302 2.94718 19.7302 2.99252C19.7755 3.0832 19.7302 3.17388 19.7302 3.26456C19.7302 3.3099 19.7302 3.35524 19.7302 3.40058C19.7755 3.44592 19.8209 3.5366 19.7755 3.62728C19.7755 3.67262 19.7755 3.71796 19.7755 3.7633C19.8209 3.85398 19.8209 3.99 19.8209 4.12602C19.8209 4.17136 19.8209 4.2167 19.8209 4.26204C19.8662 4.48874 19.8662 4.71544 19.8662 4.94214C19.8662 5.03282 19.8662 5.16884 19.8662 5.25952C19.9569 5.44088 19.8662 5.5769 19.8209 5.75826V5.8036C19.8209 5.8036 19.8209 5.8036 19.8662 5.8036C19.9569 5.93962 19.9115 6.07564 19.9115 6.21166C19.8662 6.34768 20.0022 6.52904 19.8662 6.66506C19.9115 6.7104 19.9115 6.7104 19.9115 6.75574C19.8662 6.84642 19.9115 6.98244 19.9115 7.07312C19.9115 7.20914 19.9569 7.34516 19.9115 7.43584V7.48118C19.8662 7.66254 20.0022 7.88924 19.8662 8.02526C19.8662 8.16128 19.9569 8.16128 19.9569 8.2973C19.9569 8.56934 20.0022 8.84139 19.9115 9.11343C19.9115 9.11343 19.9569 9.15877 19.9569 9.20411C19.9569 9.29479 19.9569 9.38547 19.9569 9.47615V9.52149C19.9569 9.65751 20.0476 9.74819 20.0022 9.83887C20.0022 9.88421 20.0022 9.92955 20.0022 9.97489C20.0476 10.2469 19.9569 10.4283 19.9569 10.5643ZM31.4279 22.126C31.5639 22.0353 31.4279 21.854 31.4732 21.718C31.4732 21.6726 31.3826 21.6726 31.4279 21.5819C31.5186 21.3552 31.4279 21.4006 31.3372 21.4006C31.2919 21.4006 31.2919 21.4006 31.2465 21.3552V21.3099C31.2919 21.2646 31.2919 21.2646 31.3372 21.3099C31.3826 21.3552 31.4279 21.3552 31.4732 21.3099C31.5186 21.2646 31.4732 21.1739 31.4732 21.1285C31.4732 20.9472 31.3372 20.9472 31.3372 20.8112C31.3372 20.7658 31.3372 20.7205 31.3372 20.6751C31.3826 20.4938 31.2465 20.2217 31.4732 20.1311C31.5186 20.1311 31.5186 19.9497 31.4732 19.9044C31.4279 19.859 31.4279 19.7683 31.3372 19.859C31.2919 19.9044 31.2465 19.9044 31.2012 19.7683C31.1559 19.6777 31.2465 19.5416 31.2012 19.451C31.1559 19.3149 31.1559 19.1336 31.2012 18.9976C31.2012 18.8615 31.2919 18.6802 31.1105 18.5895C31.3826 18.5895 31.3826 18.5895 31.3826 18.2268C31.4279 18.2268 31.4279 18.2268 31.4732 18.2268C31.3826 18.1814 31.3826 18.0908 31.3826 18.0001C31.3826 17.8187 31.3826 17.6827 31.2919 17.5467C31.2012 17.4107 31.2465 17.2746 31.3372 17.1386C31.3826 17.0479 31.3826 17.0026 31.2919 17.0026C31.2465 17.0026 31.2012 17.0479 31.2012 16.9573C31.2012 16.9119 31.2465 16.9119 31.2465 16.9119C31.3826 16.8666 31.4279 16.8212 31.2919 16.6399C31.2465 16.5945 31.2465 16.4585 31.2919 16.4132C31.3372 16.3225 31.2919 16.2318 31.2465 16.1865C31.2919 16.0505 31.3372 15.9144 31.1559 15.9598C31.1559 15.8238 31.1559 15.7331 31.2465 15.7331C31.2919 15.7331 31.3372 15.6877 31.2919 15.6424C31.3826 15.5064 31.4732 15.3704 31.2919 15.2343C31.2919 15.2343 31.2465 15.1437 31.2919 15.1437C31.4279 14.8263 31.2465 14.5089 31.2919 14.2369C31.2919 14.0102 31.2012 13.8288 31.2465 13.6021C31.2919 13.5114 31.3826 13.4207 31.2012 13.3754C31.1559 13.3754 31.1559 13.3301 31.1559 13.2847V13.2394C31.1559 13.194 31.1559 13.1487 31.1559 13.1034C31.1559 13.1034 31.1559 13.058 31.2012 13.058C31.2012 13.058 31.2012 13.058 31.2465 13.058C31.3372 13.0127 31.2919 12.922 31.2919 12.8313C31.2919 12.6953 31.2919 12.6046 31.3372 12.5593C31.3826 12.5139 31.4279 12.4686 31.3826 12.4232C31.3826 12.3326 31.2919 12.3326 31.2465 12.3326C31.2012 12.3326 31.1559 12.2872 31.1105 12.2872C31.1559 12.1965 31.2919 12.2872 31.3372 12.1512C31.2919 12.1512 31.2012 12.1512 31.1559 12.1512C31.0652 12.1512 30.9745 12.1512 31.1105 11.9698C31.2012 11.8338 31.1559 11.6071 31.0652 11.5164C31.1105 11.4258 31.2465 11.3804 31.1559 11.2897C31.0652 11.1991 31.1105 11.1537 31.1105 11.063C31.1105 10.9724 31.1559 10.8363 31.0652 10.7457C31.0198 10.7003 31.0198 10.6096 31.1105 10.5643C31.2919 10.519 31.1559 10.4283 31.1105 10.3829C31.1105 10.1109 31.0652 9.88421 31.1105 9.61217C31.1105 9.61217 31.1105 9.56683 31.1105 9.52149C31.0652 9.38547 31.0652 9.15877 30.9292 9.15877C30.7931 9.15877 30.8838 9.38547 30.8385 9.52149C30.8385 9.65751 30.8838 9.88421 30.8385 9.92955C30.7025 10.0202 30.7478 10.2016 30.7478 10.3376C30.7025 10.1562 30.6571 10.0656 30.5664 10.2469H30.5211C30.4758 10.2016 30.4304 10.1562 30.4758 10.1562C30.5664 9.92955 30.4304 10.0202 30.3851 9.97489C30.3851 9.92955 30.3851 9.88421 30.3851 9.83887C30.4758 9.83887 30.4758 9.74819 30.4758 9.65751C30.4758 9.34013 30.6118 9.02275 30.5211 8.70537C30.5211 8.70537 30.5211 8.66003 30.5211 8.61469C30.6571 8.34264 30.5211 8.11594 30.5211 7.88924C30.5664 7.8439 30.5664 7.8439 30.5211 7.79856C30.5211 7.66254 30.6118 7.75322 30.6118 7.6172C30.5211 7.52652 30.4758 7.43584 30.3851 7.34516C30.3397 7.29982 30.3397 7.20914 30.3851 7.1638C30.4304 6.98244 30.4304 6.9371 30.2944 6.89176C30.2037 6.84642 30.1584 6.80108 30.1584 6.66506C30.1584 6.57438 30.1584 6.52904 30.113 6.43836C30.0677 6.52904 30.0224 6.57438 29.9317 6.57438C29.8863 6.57438 29.841 6.4837 29.8863 6.43836C29.9317 6.30234 29.841 6.21166 29.841 6.07564C29.841 5.98496 29.7957 5.98496 29.7503 5.98496C29.705 5.98496 29.6596 5.98496 29.6596 6.07564C29.569 6.257 29.6143 6.43836 29.6143 6.61972C29.6143 6.66506 29.6596 6.7104 29.6596 6.7104C29.5236 6.80108 29.5236 6.98244 29.6143 7.1638C29.6143 7.25448 29.6143 7.29982 29.569 7.3905C29.4783 7.52652 29.3423 7.70788 29.3876 7.97992C29.3423 7.97992 29.2516 7.97992 29.2062 7.97992C29.1609 7.97992 29.1156 7.97992 29.1156 8.0706C29.1609 8.25196 29.0702 8.16128 29.0249 8.16128C28.9795 8.16128 28.8889 8.16128 28.8435 8.16128C28.8435 7.97992 28.7528 7.79856 28.7528 7.6172C28.7528 7.57186 28.7075 7.57186 28.7075 7.57186C28.6622 7.57186 28.6622 7.6172 28.6622 7.66254C28.6168 7.8439 28.5261 7.8439 28.4808 7.66254C28.5261 7.6172 28.5715 7.75322 28.6168 7.6172C28.6168 7.52652 28.5261 7.6172 28.5261 7.52652C28.4808 7.34516 28.2541 7.1638 28.1634 7.25448C28.0274 7.34516 27.9367 7.34516 27.8007 7.34516C27.71 7.34516 27.6647 7.34516 27.574 7.43584C27.5287 7.43584 27.5287 7.43584 27.4833 7.43584C27.438 7.29982 27.3473 7.25448 27.302 7.43584C27.2566 7.6172 27.1659 7.48118 27.0753 7.52652C27.0299 7.52652 26.9846 7.52652 26.8939 7.52652C27.0299 7.70788 26.9392 7.79856 26.8486 7.8439C26.8032 7.88924 26.8032 7.93458 26.8032 7.97992C26.8032 8.0706 26.8032 8.16128 26.8032 8.34264C26.7579 8.25196 26.8032 8.11594 26.7579 8.0706C26.7125 8.02526 26.6672 8.16128 26.6219 8.20662C26.5765 8.25197 26.5312 8.2973 26.6219 8.34264C26.6672 8.34264 26.6219 8.43333 26.5765 8.43333C26.4858 8.61469 26.3498 8.52401 26.2138 8.47867C26.2591 8.34265 26.4405 8.38798 26.4405 8.0706C26.4405 7.88924 26.3952 7.79856 26.3045 7.66254C26.2591 7.6172 26.2138 7.57186 26.2138 7.43584C26.2138 7.29982 26.2591 7.1638 26.1231 7.11846V7.02778C26.2138 6.89176 26.1231 6.75574 26.1231 6.61972C26.0778 6.4837 26.2138 6.34768 26.1685 6.257C26.1231 5.98496 26.0778 5.75826 26.0324 5.48622C26.0778 5.3502 25.9871 5.21418 25.9871 5.07816V5.03282C26.0324 4.71544 25.8964 4.4434 25.9418 4.17136C25.8511 4.17136 25.8964 4.30738 25.8511 4.26204C25.8057 4.2167 25.8511 4.17136 25.8057 4.12602C25.8057 3.99 25.8057 3.89932 25.8511 3.7633C25.8057 3.71796 25.7604 3.80864 25.7151 3.7633C25.7151 3.67262 25.7604 3.67262 25.7604 3.62728C25.8057 3.58194 25.8511 3.58194 25.8964 3.44592C25.8057 3.49126 25.7604 3.5366 25.7151 3.49126C25.579 3.44592 25.5337 3.5366 25.579 3.71796C25.579 3.85398 25.579 3.99 25.5337 4.12602C25.4884 4.17136 25.443 4.2167 25.443 4.30738C25.443 4.35272 25.443 4.39806 25.3977 4.39806C25.3523 4.39806 25.3523 4.30738 25.3523 4.26204C25.307 3.99 25.171 3.7633 25.1256 3.44592C25.1256 3.67262 25.1256 3.89932 25.1256 4.17136C25.0803 4.17136 25.035 3.94466 24.9896 4.08068C24.9443 4.2167 24.8536 4.30738 24.8083 4.48874C24.7629 4.57942 24.7629 4.76078 24.6269 4.62476C24.5362 4.62476 24.5362 4.6701 24.5362 4.76078C24.5362 4.85146 24.5362 4.94214 24.5362 4.98748C24.5362 5.03282 24.5362 5.03282 24.5362 5.07816C24.5362 5.1235 24.5362 5.16884 24.5362 5.21418C24.5362 5.25952 24.4909 5.25952 24.4909 5.30486C24.4455 5.8036 24.4002 6.257 24.4002 6.75574C24.4002 6.89176 24.4455 7.02778 24.4002 7.11846C24.3095 7.25448 24.2188 7.34516 24.3549 7.52652C24.4002 7.6172 24.4002 7.70788 24.3549 7.79856C24.3095 8.02526 24.2642 8.20662 24.3549 8.43333C24.4002 8.47867 24.3549 8.56935 24.3549 8.66003C24.3095 8.84139 24.3095 9.06809 24.3549 9.24945C24.3549 9.29479 24.3549 9.29479 24.3549 9.34013C24.3095 9.38547 24.3549 9.47615 24.3095 9.52149C24.2642 9.56683 24.2642 9.65751 24.2642 9.70285C24.3095 9.88421 24.3095 10.0656 24.2188 10.2469C24.1735 10.2923 24.2188 10.3829 24.1735 10.4736C24.1282 10.791 24.2642 11.063 24.2642 11.3804C24.2188 11.4258 24.2188 11.5164 24.1735 11.5164C24.1282 11.5164 24.1282 11.6071 24.1282 11.6071C24.2642 11.6978 24.2188 11.8792 24.2188 12.0605C24.1735 12.1965 24.1735 12.3779 24.1735 12.5139C24.1282 12.6046 24.1282 12.7406 24.1282 12.8766C24.1282 13.3301 24.1735 13.7381 24.1282 14.1915V14.2369C24.0375 14.3729 24.0828 14.1462 23.9921 14.1915C23.9921 14.2822 23.9015 14.4182 24.0375 14.4636C24.0828 14.4636 24.0375 14.5542 24.0375 14.6449L23.9921 14.6903C23.9921 14.8716 23.9468 15.0983 23.9468 15.2797C23.9468 15.325 23.9468 15.3704 23.9921 15.3704C24.0375 15.3704 24.0375 15.325 24.0375 15.4157C24.0375 15.461 24.0375 15.5517 23.9921 15.5517C23.9468 15.5517 23.9015 15.5971 23.9015 15.6877C23.9015 15.7784 23.9015 15.8691 23.8561 15.9144C23.7654 15.8238 23.8108 15.6424 23.7654 15.5064C23.7654 15.461 23.7201 15.4157 23.6748 15.4157C23.6294 15.4157 23.6294 15.461 23.6294 15.5517C23.6294 15.5971 23.6294 15.6877 23.6294 15.7331C23.7201 16.0958 23.6294 16.5039 23.6748 16.8666C23.7654 17.0026 23.6748 17.1386 23.7201 17.2746C23.7201 17.32 23.7201 17.3653 23.7654 17.4107C23.7201 17.6827 23.7201 17.9547 23.8108 18.1814C23.8561 18.2721 23.8108 18.2721 23.7654 18.3175C23.7201 18.5442 23.7201 18.7255 23.7201 18.9522C23.7201 19.0882 23.7654 19.2243 23.7654 19.4056C23.7201 19.451 23.7201 19.451 23.7201 19.4963C23.7201 19.587 23.7654 19.6777 23.7201 19.723C23.5841 19.859 23.7201 20.0404 23.6748 20.2217C23.6748 20.5391 23.6294 20.8112 23.7201 21.1285C23.6748 21.2192 23.7201 21.3552 23.6294 21.4006C23.5387 21.4459 23.5841 21.5819 23.5841 21.6726C23.5841 21.8086 23.6748 21.6273 23.6748 21.6726V21.718C23.6294 21.8086 23.6294 21.8993 23.6748 21.99C23.7654 22.1714 23.7201 22.2167 23.5841 22.3074C23.6294 22.3527 23.6748 22.3981 23.6294 22.3981C23.5841 22.4434 23.4934 22.4434 23.5841 22.5341C23.4481 22.8061 23.5387 23.0328 23.6748 23.2142C23.6294 23.2595 23.5841 23.3049 23.5387 23.3502C23.4027 23.4862 23.4934 23.5316 23.5841 23.5769C23.4934 23.8036 23.6294 23.985 23.6294 24.2117C23.6294 24.2117 23.6294 24.2117 23.5841 24.2117L23.5387 24.257C23.4934 24.529 23.5841 24.8464 23.4934 25.1185V25.1638C23.4934 25.2091 23.4934 25.2091 23.4934 25.2545C23.4027 25.2998 23.4027 25.3905 23.4481 25.4812C23.4934 25.5719 23.4934 25.6625 23.4481 25.7079C23.3574 25.8439 23.4027 26.0253 23.4027 26.1613V26.2066C23.4027 26.2973 23.4027 26.388 23.4027 26.4787C23.4027 26.8867 23.4027 27.2948 23.4934 27.7028C23.5387 27.7935 23.5387 27.9295 23.4481 28.0202C23.6294 28.1109 23.5841 28.2923 23.6294 28.519C23.6294 28.6096 23.6748 28.7003 23.6294 28.791C23.5841 29.0177 23.5387 29.1991 23.6294 29.3804C23.6294 29.4258 23.5841 29.5164 23.6748 29.5164C23.7201 29.5164 23.7654 29.4258 23.7654 29.3804C23.7654 29.1084 23.8561 28.927 23.9468 28.7003C23.9468 28.655 23.9468 28.6096 23.9468 28.5643C23.9921 28.519 23.9921 28.3829 24.0828 28.4283C24.0828 28.4736 24.0828 28.519 24.1282 28.5643C24.1735 28.7457 24.0828 28.9724 24.2642 29.1084C24.2642 29.1537 24.2642 29.1991 24.2642 29.1991C24.2188 29.2897 24.2188 29.4258 24.1735 29.5164C24.1282 29.6071 24.2188 29.6071 24.2642 29.6071C24.3095 29.6071 24.3095 29.6525 24.3095 29.6525C24.4002 29.6978 24.4909 29.7431 24.5362 29.7885C24.6269 29.9245 24.7629 29.7431 24.8536 29.8792L24.8989 29.9245C24.9443 29.9245 24.9896 29.9245 25.035 29.8792C25.0803 29.9245 25.1256 30.0152 25.2163 30.0605C25.2163 29.8792 25.3523 29.9698 25.3977 29.8792H25.443C25.443 29.9245 25.4884 29.9245 25.5337 29.9245C25.5337 29.9245 25.5337 29.9698 25.579 29.9698V30.0152C25.5337 30.0152 25.4884 30.0152 25.3977 29.9698C25.4884 30.1059 25.5337 30.1059 25.6244 30.0605C25.6697 30.1512 25.7604 30.1059 25.8057 30.0605C25.8511 30.0605 25.9418 30.0605 25.9871 30.0605C26.0778 30.1059 26.1685 30.0605 26.2591 29.9245C26.2591 29.8792 26.3045 29.8792 26.3045 29.8338C26.3498 29.8338 26.3498 29.8338 26.3952 29.8338C26.4858 29.7431 26.5765 29.6525 26.6672 29.5164C26.7579 29.5164 26.7579 29.4258 26.7579 29.3804C26.9392 29.2897 27.1206 29.1991 27.0299 28.8363V28.791C27.1206 28.7457 27.2113 28.7457 27.302 28.7003C27.302 28.7003 27.3473 28.791 27.3926 28.8817C27.3473 28.8817 27.302 28.927 27.3473 29.0177C27.3926 29.063 27.438 29.063 27.438 28.9724C27.4833 28.9724 27.4833 28.9724 27.5287 28.9724C27.574 29.0177 27.6193 28.9724 27.6647 28.9724C27.8007 28.9724 27.9367 28.9724 28.0727 28.9724C28.2994 29.063 28.5261 29.063 28.7075 29.063C28.7075 29.1537 28.7982 29.1537 28.7528 29.2444C28.7528 29.2897 28.6622 29.3804 28.7075 29.3804C28.8435 29.4258 28.7528 29.6071 28.7982 29.7431C28.7982 29.8792 28.7528 30.0152 28.8435 30.1512C28.8435 30.2419 28.7982 30.3326 28.8435 30.4232C28.9342 30.5593 29.0702 30.65 29.1609 30.8313C29.2516 30.8313 29.3423 30.8766 29.4329 30.8766C29.5236 30.8313 29.6596 30.922 29.705 30.6953V30.6499V30.6046C29.7503 30.6046 29.7957 30.6953 29.841 30.6499C29.8863 30.5593 29.705 30.5139 29.841 30.4232C29.8863 30.4232 29.977 30.4686 29.977 30.3326C29.977 30.1965 29.8863 30.2419 29.841 30.1512C30.0224 30.2419 30.1584 30.1965 30.2944 30.1512C30.4304 30.1059 30.5664 29.9698 30.7025 29.9698C30.7478 29.9698 30.7478 29.9245 30.7478 29.8792C30.7478 29.8338 30.7025 29.8338 30.7025 29.7885C30.6571 29.7885 30.5664 29.8338 30.5211 29.7431C30.6118 29.6525 30.7931 29.7885 30.8385 29.5618C30.7478 29.5618 30.6571 29.6071 30.5664 29.5164C30.6118 29.4258 30.7025 29.4711 30.7478 29.4711C30.7931 29.4711 30.8385 29.4258 30.7931 29.3804C30.7025 29.2444 30.8385 29.2444 30.8838 29.1537C30.9745 29.063 31.1559 29.0177 31.0198 28.7457V28.7003C31.1105 28.6096 31.0652 28.5643 31.0198 28.4736C30.8838 28.3376 30.8838 28.2469 30.8838 28.2016C31.0198 28.0656 31.0652 27.8389 30.9745 27.6575C30.8838 27.4761 30.9745 27.2494 30.9745 27.2041C31.1105 27.0227 30.9745 27.0227 30.9292 26.9774C30.9292 26.9321 30.8838 26.9321 30.8838 26.8867C31.1105 26.8867 30.9745 26.6147 31.0198 26.4787C31.2919 26.4787 31.2919 26.388 31.2919 26.0253C31.2919 25.9799 31.2919 25.8892 31.2919 25.8439C31.2465 25.5719 31.4279 25.2998 31.2919 25.0731C31.2919 25.0278 31.2919 24.9824 31.3372 24.9824C31.3826 24.9824 31.3826 24.9371 31.3826 24.8918C31.3372 24.7557 31.3372 24.6197 31.3826 24.4837C31.4279 24.3477 31.4732 24.1663 31.2919 24.2117C31.2465 24.2117 31.2012 24.121 31.1105 24.0756C31.1559 24.0303 31.1559 24.0303 31.2012 24.0303C31.3372 24.1663 31.3372 24.0303 31.3826 23.8943C31.4279 23.6222 31.3826 23.3049 31.2012 23.1235C31.3826 23.0328 31.3372 22.7608 31.3372 22.5794V22.5341C31.5186 22.4887 31.5639 22.4434 31.4732 22.1714C31.4279 22.1714 31.4279 22.126 31.4279 22.126ZM7.94176 22.126C7.94176 22.0807 7.94176 22.0353 7.94176 22.0353C7.94176 21.8086 7.94176 21.5819 7.94176 21.3552V21.3099C7.9871 21.1739 7.89642 21.0832 7.89642 20.9472C7.94176 20.8112 7.89642 20.6751 7.94176 20.5391C7.94176 20.3578 7.94176 20.1311 7.94176 19.9497C7.94176 19.9044 7.94176 19.859 7.94176 19.8137C7.9871 19.723 7.94176 19.587 7.94176 19.4963C7.94176 19.451 7.94176 19.4056 7.94176 19.3603C7.9871 19.1336 7.9871 18.9069 7.94176 18.6802C7.94176 18.5442 7.89642 18.4535 7.89642 18.3175C7.94176 18.1814 7.94176 18.0454 7.94176 17.9094C7.9871 17.728 7.9871 17.5467 7.94176 17.3653C7.9871 17.32 7.9871 17.2746 7.94176 17.184C7.94176 17.1386 7.94176 17.0933 7.94176 17.0479C7.9871 16.9119 7.94176 16.7759 7.89642 16.6399C7.89642 16.5945 7.89642 16.5492 7.89642 16.5492C7.89642 16.5039 7.89642 16.4585 7.89642 16.4585C7.89642 16.2772 7.94176 16.0958 7.89642 15.9144V15.8691C7.89642 15.7331 7.94176 15.5971 7.89642 15.461C7.89642 15.1437 7.89642 14.8716 7.89642 14.5542C7.89642 14.4182 7.89642 14.2822 7.89642 14.1915V14.1462C7.85108 13.8288 7.80574 13.4661 7.80574 13.1487C7.80574 13.0127 7.85108 12.922 7.80574 12.786C7.71506 12.0605 7.7604 11.3804 7.71506 10.655C7.71506 10.4283 7.66972 10.2469 7.62438 10.0202C7.62438 9.61217 7.57904 9.15877 7.5337 8.7507C7.5337 8.38798 7.57904 8.0706 7.57904 7.70788C7.57904 7.3905 7.57904 7.11846 7.57904 6.84642C7.57904 6.66506 7.48836 6.57438 7.39768 6.66506H7.35234C7.21632 6.30234 7.21632 5.89428 7.21632 5.53156C7.21632 5.3502 7.21632 5.21418 7.21632 5.03282C7.12564 4.98748 7.03496 4.94214 6.94428 4.85146C6.94428 4.8968 6.94428 4.94214 6.94428 4.98748C6.76292 5.48622 6.71758 6.0303 6.71758 6.57438C6.71758 6.61972 6.71758 6.66506 6.71758 6.66506V6.7104C6.71758 6.75574 6.71758 6.80108 6.71758 6.80108C6.67224 6.9371 6.71758 7.11846 6.67224 7.29982C6.67224 7.3905 6.67224 7.52652 6.53622 7.43584V7.3905C6.58156 7.1638 6.49088 6.98244 6.49088 6.75574C6.49088 6.66506 6.49088 6.57438 6.49088 6.4837C6.49088 6.34768 6.49088 6.21166 6.44554 6.12098V5.71292C6.21884 5.89428 6.26418 6.16632 6.26418 6.39302C6.26418 6.57438 6.21884 6.7104 6.21884 6.89176C6.21884 7.34516 6.08282 7.79856 6.08282 8.25197C6.08282 8.29731 6.08282 8.2973 6.08282 8.2973C6.03748 8.38798 6.08282 8.524 5.9468 8.524C5.9468 8.11594 5.9468 7.70788 5.85612 7.29982C5.85612 7.20914 5.90146 7.11846 5.81078 7.02778C5.81078 6.98244 5.85612 6.9371 5.85612 6.89176C5.85612 6.80108 5.90146 6.7104 5.90146 6.66506C5.90146 6.30234 5.9468 5.93962 6.03748 5.62224C6.08282 5.48622 6.03748 5.3502 5.90146 5.39554C5.76544 5.39554 5.67476 5.3502 5.7201 5.1235C5.7201 5.03282 5.7201 4.85146 5.58408 4.8968C5.4934 4.94214 5.40272 4.98748 5.35738 5.1235C5.2667 5.21418 5.17602 5.21418 5.08534 5.16884C5.04 5.07816 5.04 4.98748 5.08534 4.8968C5.13068 4.80612 5.17602 4.6701 5.13068 4.57942C5.08534 4.35272 5.04 4.48874 4.94932 4.53408C4.90398 4.57942 4.85864 4.53408 4.8133 4.57942C4.67728 4.57942 4.5866 4.62476 4.54126 4.85146C4.40524 4.94214 4.3599 5.1235 4.26922 5.25952H4.22388C4.1332 5.16884 4.04252 5.03282 3.9065 5.1235C3.72514 4.8968 3.58912 5.03282 3.4531 5.21418C3.40776 5.21418 3.40776 5.25952 3.36242 5.3502C3.31708 5.3502 3.27174 5.39554 3.27174 5.44088C3.09038 5.3502 2.9997 5.48622 2.86368 5.5769C2.5463 5.5769 2.45562 5.89428 2.36494 6.21166C2.3196 6.34768 2.22892 6.39302 2.18358 6.43836C2.0929 6.34768 2.0929 6.12098 1.91154 6.30234C1.59416 6.07564 1.54882 6.07564 1.45814 6.39302C1.4128 6.43836 1.4128 6.4837 1.4128 6.52904C1.36746 6.52904 1.36746 6.57438 1.36746 6.61972C1.32212 6.66506 1.27678 6.7104 1.23144 6.75574C1.14076 6.75574 1.1861 6.84642 1.14076 6.89176C1.09542 6.89176 1.05008 6.89176 1.00474 6.89176C0.959395 6.89176 0.959395 6.84642 0.914055 6.84642C0.868715 6.84642 0.914055 6.89176 0.914055 6.9371C0.823375 7.11846 0.914055 7.34516 0.778035 7.48118C0.642015 7.6172 0.505995 7.70788 0.324635 7.52652C0.233955 7.48118 0.188615 7.75322 0.0979345 7.52652C0.143275 7.70788 0.188615 7.8439 0.188615 7.97992C0.188615 8.16128 0.143275 8.34264 0.143275 8.524C0.0979345 8.61468 0.143275 8.70537 0.143275 8.79605C0.143275 8.88673 0.0979345 8.97741 0.143275 9.06809C0.0979345 9.11343 0.0979345 9.20411 0.0979345 9.29479V9.34013C0.00725441 9.43081 0.0525945 9.56683 0.0979345 9.65751C0.0979345 9.70285 0.0979345 9.70285 0.0979345 9.74819C0.0979345 9.79353 0.0979345 9.88421 0.143275 9.92955C0.143275 10.0202 0.143275 10.1562 0.0979345 10.2469C0.0979345 10.2923 0.0979345 10.2923 0.0979345 10.3376C0.143275 10.4283 0.00725441 10.6096 0.188615 10.6096C0.188615 10.6096 0.188615 10.6096 0.188615 10.655C0.0525945 10.8363 0.00725441 11.1084 0.0979345 11.3804C0.0979345 11.4711 0.0979345 11.5618 0.0979345 11.6525V11.6978C0.0525945 11.8338 0.00725441 11.9245 0.143275 12.0152C0.0979345 12.0605 0.0979345 12.1512 0.0979345 12.1965C0.00725441 12.1965 0.0525945 12.3326 0.00725441 12.3779C0.00725441 12.5139 -0.0380856 12.6953 0.0979345 12.8313C0.0979345 12.8766 0.0979345 12.922 0.0979345 12.922C0.0979345 12.9673 0.0979345 13.0127 0.0979345 13.1034C0.00725441 13.194 0.143275 13.3301 0.0979345 13.4207L0.0525945 13.4661C-0.0380856 13.5114 0.00725441 13.5568 0.0525945 13.6474C0.0525945 13.6928 0.0979345 13.7381 0.0979345 13.7835C0.0979345 13.8288 0.0979345 13.8288 0.0979345 13.8741C0.0979345 13.9195 0.0979345 13.9648 0.0979345 14.0102V14.0555C0.0525945 14.1008 0.00725441 14.1462 0.0979345 14.2369C0.0979345 14.2822 0.143275 14.3275 0.143275 14.3275C0.143275 14.3729 0.143275 14.4182 0.143275 14.4182C0.0979345 14.4636 0.0979345 14.5542 0.0979345 14.5996C0.0979345 14.6449 0.0979345 14.6903 0.143275 14.7356C0.233955 14.8716 0.188615 14.9623 0.0979345 15.053C0.0525945 15.0983 -0.0380856 15.1437 0.0979345 15.189C0.0979345 15.2797 0.0525945 15.4157 0.143275 15.5064C0.0979345 15.5517 0.0979345 15.5971 0.0979345 15.6877C0.0979345 15.7331 0.0979345 15.8238 0.143275 15.8238C0.143275 15.9598 0.143275 16.0958 0.143275 16.2318V16.2772L0.0979345 16.3225C0.0525945 16.3225 0.0525945 16.3225 0.0525945 16.3678C0.0525945 16.4132 0.0979345 16.4585 0.0979345 16.4585C0.143275 16.5039 0.188615 16.5492 0.188615 16.6399C0.233955 16.7306 0.233955 16.8666 0.279295 16.9573C0.279295 17.0026 0.279295 17.0026 0.233955 17.0479H0.279295C0.279295 17.0479 0.279295 17.0479 0.233955 17.0479C0.188615 17.1386 0.188615 17.184 0.233955 17.2746C0.233955 17.32 0.279295 17.4107 0.233955 17.456C0.0979345 17.5013 0.143275 17.6374 0.188615 17.728C0.188615 17.8187 0.188615 17.9094 0.233955 18.0001C0.188615 18.1361 0.143275 18.2268 0.188615 18.3628C0.188615 18.4535 0.188615 18.4988 0.188615 18.5895C0.188615 18.6802 0.188615 18.7709 0.279295 18.6802C0.324635 18.7255 0.369975 18.7709 0.279295 18.8162C0.233955 18.8162 0.188615 18.7709 0.188615 18.9069C0.188615 19.0882 0.188615 19.1789 0.279295 19.2696C0.324635 19.3149 0.324635 19.3603 0.279295 19.4056C0.188615 19.4056 0.143275 19.4963 0.143275 19.587C0.143275 19.723 0.279295 19.6323 0.279295 19.7683C0.279295 19.859 0.324635 19.9497 0.324635 20.0404C0.324635 20.0857 0.324635 20.1311 0.324635 20.1764C0.279295 20.2217 0.279295 20.2671 0.279295 20.3578C0.415315 20.4484 0.279295 20.5391 0.279295 20.6751C0.188615 20.8565 0.233955 21.0832 0.279295 21.2646C0.233955 21.3552 0.233955 21.4459 0.324635 21.5366C0.369975 21.6726 0.279295 21.8086 0.324635 21.9447C0.324635 22.0807 0.324635 22.2167 0.324635 22.3074C0.324635 22.3981 0.324635 22.5341 0.324635 22.6248C0.324635 22.7608 0.324635 22.8515 0.324635 22.9875C0.324635 23.1235 0.324635 23.2595 0.369975 23.3502C0.324635 23.3955 0.324635 23.4409 0.369975 23.4862V23.5316C0.324635 23.8036 0.369975 24.0756 0.369975 24.3023C0.415315 24.6651 0.369975 25.0731 0.460655 25.4812C0.415315 25.7986 0.460655 26.0706 0.460655 26.388C0.460655 26.4787 0.460655 26.5693 0.460655 26.66V26.7054C0.460655 26.796 0.460655 26.9321 0.460655 27.0227C0.460655 27.1588 0.460655 27.2948 0.505995 27.4308C0.415315 27.9295 0.460655 28.4283 0.551335 28.927C0.551335 28.9724 0.596675 29.0177 0.596675 29.063C0.596675 29.1084 0.642015 29.1537 0.687355 29.1991C0.732695 29.2444 0.732695 29.2897 0.778035 29.2897C0.868715 29.5164 1.00474 29.4258 1.09542 29.4711C1.14076 29.4711 1.1861 29.5164 1.1861 29.5164L1.23144 29.5618C1.36746 29.6978 1.45814 29.4711 1.54882 29.5164C1.6395 29.6071 1.73018 29.4711 1.8662 29.5164C1.91154 29.5164 2.00222 29.5164 2.04756 29.5618V29.6071C1.95688 29.7431 2.04756 29.8338 2.0929 29.9245C2.22892 30.1059 2.36494 30.3326 2.59164 30.3326L2.63698 30.2872C2.773 30.3779 2.81834 30.1059 2.90902 30.1059C3.04504 30.1059 3.18106 30.0605 3.31708 29.9698C3.40776 29.9698 3.40776 29.7431 3.49844 29.6978C3.63446 29.6525 3.63446 29.5164 3.54378 29.3804V29.3351C3.54378 29.2444 3.54378 29.1537 3.54378 29.063C3.54378 28.655 3.58912 28.2469 3.54378 27.8389C3.58912 27.7935 3.58912 27.7935 3.63446 27.8389C3.6798 28.0202 3.72514 28.0656 3.86116 28.0656C3.86116 28.1562 3.81582 28.2923 3.95184 28.2469H3.99718C4.08786 28.3829 4.22388 28.2469 4.26922 28.3376C4.3599 28.4736 4.45058 28.4283 4.54126 28.4283C4.67728 28.655 4.8133 28.7003 4.90398 28.6096C4.94932 28.6096 4.94932 28.6096 4.99466 28.6096C4.99466 28.6096 4.99466 28.655 5.04 28.655C5.04 28.8817 5.13068 29.063 5.13068 29.2444C5.17602 29.5164 5.04 29.8792 5.22136 30.1059C5.22136 30.1965 5.2667 30.2872 5.31204 30.2419C5.35738 30.2419 5.35738 30.3326 5.40272 30.2872C5.44806 30.3326 5.44806 30.3779 5.4934 30.3326C5.53874 30.5593 5.67476 30.3779 5.7201 30.4686C5.7201 30.5139 5.7201 30.5139 5.76544 30.5139C5.90146 30.65 5.99214 30.6953 6.12816 30.5139C6.21884 30.5593 6.26418 30.5593 6.35486 30.4686C6.35486 30.4686 6.35486 30.4686 6.4002 30.4686C6.49088 30.5139 6.58156 30.5593 6.6269 30.4686C6.67224 30.4232 6.76292 30.4686 6.80826 30.3779C6.8536 30.3326 6.89894 30.3326 6.89894 30.2872C7.0803 30.2872 7.26166 30.2419 7.35234 29.9245C7.48836 29.9245 7.39768 29.7885 7.44302 29.6978C7.48836 29.6525 7.5337 29.6071 7.57904 29.5618C7.62438 29.5618 7.62438 29.6525 7.66972 29.6071C7.71506 29.5164 7.66972 29.4258 7.62438 29.3351C7.62438 29.063 7.62438 28.791 7.62438 28.4736C7.62438 28.3376 7.66972 28.2016 7.66972 28.0656C7.66972 27.9295 7.66972 27.7935 7.66972 27.6575C7.71506 27.5215 7.66972 27.3855 7.71506 27.2494C7.71506 27.0681 7.85108 26.9321 7.80574 26.7054C7.80574 26.524 7.80574 26.3426 7.80574 26.1613C7.80574 25.9799 7.89642 25.7986 7.85108 25.5719C7.85108 25.4812 7.85108 25.4358 7.85108 25.3452C7.85108 25.0731 7.89642 24.8011 7.89642 24.529C7.89642 24.4384 7.89642 24.3477 7.89642 24.257C7.89642 24.1663 7.89642 24.121 7.89642 24.0303C7.89642 23.8943 7.89642 23.8036 7.89642 23.6676V23.6222C7.94176 23.3955 7.94176 23.1235 7.89642 22.8968V22.8515C7.89642 22.6701 7.89642 22.4434 7.89642 22.262C7.89642 22.2167 7.89642 22.2167 7.89642 22.1714C7.9871 22.3074 7.94176 22.2167 7.94176 22.126Z" fill="#CDAE64"/>
</svg>
