<svg width="339" height="31" viewBox="0 0 339 31" fill="none" xmlns="http://www.w3.org/2000/svg">
<path d="M86.0162 23.8861C86.0162 24.3815 85.7859 24.5467 85.3252 24.5467C82.8243 24.5467 80.3235 24.5467 77.8555 24.5467C77.2632 24.5467 77.2303 24.2164 77.2303 23.7539C77.2303 21.3757 77.2303 18.9645 77.2303 16.5863C77.2303 16.1899 77.2303 15.7605 77.1645 15.3641C76.8684 13.2832 75.5192 12.1601 73.479 12.2592C71.2414 12.3583 69.4974 13.8447 69.4645 15.8266C69.3987 18.3699 69.3987 20.9463 69.4645 23.4897C69.4645 24.3485 69.2013 24.5797 68.3786 24.5467C66.1081 24.5136 63.8376 24.5136 61.5671 24.5467C60.7773 24.5797 60.6128 24.3155 60.6128 23.5557C60.6786 21.3097 60.6457 19.0636 60.6128 16.8175C60.6128 16.4211 60.6128 16.0578 60.5799 15.6614C60.3496 13.2832 59.0991 12.1601 56.7628 12.2262C54.591 12.2923 52.9128 13.8777 52.847 15.9917C52.8141 18.5351 52.8141 21.1115 52.847 23.6548C52.847 24.3155 52.6496 24.5797 51.9585 24.5797C49.5893 24.5467 47.1872 24.5467 44.8179 24.5797C44.2585 24.5797 44.0611 24.3815 44.0611 23.82C44.094 18.5351 44.094 13.2171 44.0611 7.9322C44.0611 7.30462 44.2585 7.13947 44.8508 7.13947C47.2201 7.1725 49.5564 7.1725 51.9256 7.13947C52.5508 7.13947 52.7483 7.33765 52.7154 7.96523C52.6825 8.62585 52.7154 9.25343 52.7154 10.1783C55.1175 7.9322 57.8158 6.87522 60.8761 6.80916C63.9692 6.7431 66.7662 7.37068 68.576 10.2444C69.629 9.55071 70.5504 8.82403 71.5705 8.29554C74.7953 6.64401 78.2175 6.28067 81.6726 7.43674C84.3709 8.32857 85.8188 10.4095 85.9175 13.2171C86.082 16.7514 86.0162 20.3187 86.0162 23.8861ZM136.099 7.23856C139.028 7.23856 141.891 7.23856 144.852 7.23856C144.852 7.6019 144.852 7.9322 144.852 8.26251C144.852 12.5565 144.852 16.8835 144.852 21.1775C144.852 25.6697 142.549 28.7416 138.271 29.9637C137.317 30.228 136.297 30.4922 135.309 30.5913C130.966 30.9546 126.589 31.1198 122.344 29.8316C120.469 29.2701 118.791 28.3122 117.935 26.4294C117.672 25.8679 117.606 25.2403 117.409 24.5797C117.803 24.5467 118.067 24.5136 118.297 24.5136C120.699 24.5136 123.134 24.4806 125.536 24.5467C125.865 24.5467 126.227 24.8439 126.556 25.0091C126.951 25.2073 127.346 25.5376 127.774 25.6367C129.485 26.0661 131.196 26.0991 132.907 25.7358C135.079 25.2733 136.297 23.5888 136.066 21.3757C134.585 22.5318 132.973 23.2585 131.13 23.5227C128.136 23.9191 125.109 24.0182 122.18 23.0933C116.75 21.4087 114.546 14.9347 117.869 10.3434C119.284 8.3616 121.39 7.46977 123.694 7.13947C126.721 6.67704 129.781 6.71007 132.71 7.63493C133.861 7.99827 134.947 8.62585 136.132 9.18737C136.099 8.52676 136.099 7.89917 136.099 7.23856ZM136 15.4632C136.033 13.9768 135.211 12.8208 133.532 12.2592C131.591 11.5986 129.617 11.5326 127.642 12.1932C126.03 12.7547 125.24 13.8447 125.273 15.3641C125.306 17.0487 126.26 18.3039 127.906 18.7333C128.728 18.9314 129.584 19.0305 130.472 19.1957C131.394 19.0305 132.381 18.9314 133.335 18.6672C134.915 18.1717 135.967 16.8835 136 15.4632ZM275.555 0.599379C278.483 0.599379 281.346 0.599379 284.275 0.599379C284.275 8.55979 284.275 16.4872 284.275 24.4806C281.412 24.4806 278.582 24.4806 275.653 24.4806C275.653 23.7539 275.653 23.0273 275.653 22.1685C274.831 22.6639 274.173 23.1924 273.416 23.5557C270.75 24.877 267.888 25.0421 264.992 24.8109C263.215 24.6788 261.537 24.1833 259.99 23.2915C257.489 21.8051 256.37 19.4599 256.206 16.6523C256.14 15.5293 256.206 14.3402 256.436 13.2171C257.193 9.84799 259.497 7.96523 262.721 7.27159C266.242 6.51188 269.763 6.61097 273.12 7.99827C273.909 8.29554 274.6 8.791 275.489 9.25343C275.555 6.28067 275.555 3.47305 275.555 0.599379ZM275.555 15.7605C275.489 13.9768 274.271 12.4574 272.264 12.061C271.014 11.8298 269.632 11.7307 268.381 11.9289C265.584 12.3253 264.235 15.0999 265.485 17.6432C266.407 19.559 268.184 19.8893 270.29 20.0215C270.849 19.9224 271.672 19.8233 272.461 19.5921C274.337 19.0305 275.62 17.379 275.555 15.7605ZM295.792 17.1478C295.496 17.1478 295.199 17.1478 294.838 17.1478C294.969 18.2378 295.463 19.0305 296.318 19.4599C298.753 20.649 301.221 20.583 303.689 19.559C303.985 19.4269 304.314 19.2287 304.446 18.9645C304.808 18.1717 305.433 18.1717 306.124 18.1717C308.296 18.2048 310.468 18.2048 312.607 18.1717C313.397 18.1387 313.561 18.436 313.429 19.1296C313.002 21.4418 311.488 22.8951 309.382 23.5888C307.539 24.2164 305.565 24.6458 303.623 24.8109C300.201 25.1082 296.713 25.2403 293.324 24.4145C290.165 23.6218 287.532 22.1685 286.512 18.7993C285.92 16.8505 285.887 14.8356 286.414 12.8538C287.105 10.4095 288.816 8.85706 291.119 7.9322C293.028 7.1725 295.002 6.84219 297.042 6.7431C300.201 6.57794 303.36 6.57794 306.453 7.30462C308.855 7.86614 310.994 8.98919 312.344 11.1692C313.364 12.8538 313.495 14.7365 313.561 16.6523C313.594 17.2138 313.166 17.1478 312.837 17.1478C310.139 17.1478 307.408 17.1478 304.709 17.1478C301.781 17.1478 298.786 17.1478 295.792 17.1478ZM294.936 13.5144C298.26 13.5144 301.452 13.5144 304.742 13.5144C304.611 12.6556 304.183 12.028 303.492 11.7307C301.09 10.6738 298.655 10.7068 296.253 11.7307C295.561 12.028 295.134 12.6556 294.936 13.5144ZM226.13 15.3311C226.163 15.8926 226.13 16.4541 226.13 17.1478C219.845 17.1478 213.626 17.1478 207.406 17.1478C207.571 18.4029 208.229 19.2287 209.315 19.6581C211.618 20.5499 213.955 20.583 216.258 19.559C216.587 19.3939 216.982 19.1627 217.147 18.8654C217.476 18.2378 217.936 18.1717 218.561 18.1717C220.766 18.2048 222.938 18.1717 225.143 18.1717C225.439 18.1717 225.735 18.1717 226.13 18.1717C226.196 19.2287 225.932 20.1205 225.406 20.9463C224.452 22.4988 222.971 23.4897 221.293 23.8861C219.121 24.3815 216.883 24.7779 214.679 24.91C211.783 25.0752 208.854 25.1412 206.024 24.4145C202.734 23.5557 200.035 22.0033 199.147 18.469C198.686 16.6523 198.653 14.8026 199.114 13.0189C199.97 9.81496 202.339 8.26251 205.333 7.43674C208.624 6.54491 212.013 6.47885 215.37 6.77613C217.245 6.94128 219.121 7.27159 220.898 7.89917C224.254 9.08828 225.965 11.7307 226.13 15.3311ZM217.344 13.5144C217.147 12.5895 216.686 11.9289 215.896 11.5986C213.626 10.7068 211.355 10.7398 209.085 11.5986C208.295 11.8959 207.768 12.5235 207.505 13.5144C210.829 13.5144 214.053 13.5144 217.344 13.5144ZM97.4675 17.1478C97.1713 17.1478 96.8752 17.1478 96.4803 17.1478C96.7107 18.502 97.4675 19.3608 98.5863 19.7572C100.594 20.4839 102.634 20.5169 104.641 19.8563C105.332 19.6251 105.859 18.9975 106.451 18.5351C106.615 18.403 106.78 18.2048 106.944 18.2048C109.643 18.1717 112.374 18.2048 115.138 18.2048C115.237 19.3939 114.908 20.3518 114.282 21.2436C113.197 22.796 111.617 23.5888 109.873 24.0842C106.319 25.1412 102.667 25.0421 99.0141 24.943C96.5461 24.877 94.1769 24.4145 91.9722 23.2585C89.3397 21.8712 88.0235 19.6251 87.859 16.6854C87.7602 14.9347 87.7931 13.1841 88.6158 11.5326C89.8333 9.2204 91.8735 8.0313 94.2756 7.40371C97.632 6.47885 101.054 6.51188 104.476 6.71007C106.879 6.87522 109.215 7.27159 111.321 8.49373C113.657 9.88102 114.875 11.9289 115.138 14.5714C115.401 17.0817 115.368 17.0817 112.9 17.0817C107.767 17.1478 102.634 17.1478 97.4675 17.1478ZM96.6119 13.5144C99.9354 13.5144 103.16 13.5144 106.451 13.5144C106.22 12.5895 105.76 11.9289 104.97 11.5986C102.732 10.7068 100.462 10.7728 98.2572 11.5656C97.4017 11.8629 96.8752 12.5235 96.6119 13.5144ZM171.506 20.3848C171.539 21.7391 171.703 23.0933 171.802 24.5797C171.045 24.5797 170.256 24.5797 169.433 24.5797C167.722 24.5797 166.044 24.5467 164.332 24.6127C163.609 24.6458 163.247 24.4476 163.214 23.7209C163.181 23.3245 163.115 22.8951 163.049 22.3997C162.621 22.6969 162.226 23.0273 161.799 23.2585C159.199 24.7779 156.369 25.0421 153.473 24.8439C151.894 24.7449 150.38 24.4476 149.031 23.5557C146.991 22.2345 146.366 20.2857 146.728 17.9735C147.057 15.8266 148.636 14.8026 150.545 14.4062C152.782 13.9768 155.053 13.8117 157.291 13.5474C158.837 13.3823 160.384 13.2832 161.963 13.118C162.424 13.085 163.016 12.9529 162.917 12.3583C162.852 11.962 162.457 11.4004 162.095 11.3013C160.186 10.8059 158.245 10.7068 156.369 11.3344C155.843 11.4995 155.448 12.0941 155.02 12.4904C155.053 12.5565 155.053 12.6226 155.086 12.6886C152.453 12.6886 149.821 12.6886 147.09 12.6886C146.958 11.2683 147.353 10.0462 148.373 9.05525C149.525 7.96523 151.006 7.43674 152.519 7.23856C157.554 6.51188 162.621 6.34673 167.59 7.6019C170.288 8.29554 171.473 9.81496 171.506 12.6226C171.539 13.8447 171.506 15.0338 171.506 16.256C171.473 17.6432 171.44 18.9975 171.506 20.3848ZM162.852 16.355C160.68 16.7514 158.508 17.1147 156.369 17.5441C155.678 17.6763 154.954 17.9405 154.987 18.8984C155.02 19.6911 155.481 20.2857 156.402 20.4839C158.278 20.8803 160.055 20.616 161.634 19.4599C162.621 18.7002 163.049 17.6763 162.852 16.355ZM250.283 7.66796C245.775 6.01642 241.497 6.61097 237.581 9.45162C237.318 9.6498 237.088 9.84799 236.693 10.1453C236.693 9.08828 236.693 8.16342 236.693 7.20553C233.764 7.20553 230.901 7.20553 228.071 7.20553C228.071 12.9859 228.071 18.7002 228.071 24.4476C231 24.4476 233.863 24.4476 236.791 24.4476C236.791 24.0842 236.791 23.787 236.791 23.4897C236.791 21.1115 236.791 18.7002 236.791 16.322C236.791 15.1329 237.153 14.0759 238.075 13.3162C239.72 11.995 241.596 11.8629 243.504 12.6226C245.215 13.3162 245.544 14.8356 245.544 16.4872C245.544 18.8323 245.544 21.2106 245.544 23.5557C245.544 23.853 245.577 24.1173 245.577 24.4476C248.539 24.4476 251.369 24.4476 254.297 24.4476C254.33 24.2494 254.363 24.1503 254.363 24.0512C254.363 20.5169 254.429 16.9826 254.363 13.4153C254.264 10.7068 252.915 8.62585 250.283 7.66796ZM193.685 7.37068C191.282 6.37976 186.412 6.28067 183.517 9.35253C183.286 9.58374 183.056 9.84799 182.694 10.2444C182.694 9.12131 182.694 8.22948 182.694 7.23856C179.765 7.23856 176.935 7.23856 174.073 7.23856C174.073 13.0189 174.073 18.7663 174.073 24.5136C177.001 24.5136 179.831 24.5136 182.793 24.5136C182.793 24.1833 182.793 23.8861 182.793 23.5888C182.793 21.5409 182.793 19.526 182.793 17.4781C182.793 16.6523 182.76 15.8266 182.826 15.0008C182.99 13.1841 184.306 12.028 186.05 12.028C187.794 12.061 188.88 13.085 189.045 14.9678C189.078 15.3311 189.078 15.7275 189.111 16.1238C191.941 16.1238 194.738 16.1238 197.666 16.1238C197.567 14.8356 197.567 13.6135 197.403 12.3914C197.041 10.1453 195.922 8.29554 193.685 7.37068ZM338.932 13.085C338.635 10.2774 337.418 8.06433 334.588 7.1725C332.252 6.44582 329.849 6.51188 327.612 7.56887C326.361 8.16342 325.276 9.12131 324.124 9.91405C324.124 9.12131 324.124 8.19645 324.124 7.27159C321.195 7.27159 318.332 7.27159 315.502 7.27159C315.502 13.085 315.502 18.7993 315.502 24.5136C318.398 24.5136 321.261 24.5136 324.19 24.5136C324.19 24.1833 324.19 23.8861 324.19 23.5888C324.19 21.0124 324.124 18.436 324.223 15.8596C324.255 15.0338 324.486 14.175 324.848 13.4483C325.374 12.3583 326.789 11.8629 328.04 12.1271C329.356 12.3914 330.146 13.1511 330.376 14.4393C330.475 15.0008 330.508 15.5623 330.606 16.1569C333.403 16.1569 336.167 16.1569 338.964 16.1569C338.964 15.0999 339.063 14.0759 338.932 13.085ZM22.3432 0.368164H7.86453L14.9393 13.9108L22.3432 0.368164ZM18.4603 24.5136H33.5312L26.1602 10.971L18.4603 24.5136ZM0 30.9546H15.0709L7.7 17.412L0 30.9546Z" fill="white"/>
</svg>
