<svg width="733" height="411" viewBox="0 0 733 411" fill="none" xmlns="http://www.w3.org/2000/svg">
<path d="M145.921 395.851V405.007H143.81V396.085C143.81 392.799 142.168 391.155 139.118 391.155C135.833 391.155 133.722 393.268 133.722 396.79V405.007H131.376V382.938H133.487V392.094C134.66 390.216 136.772 389.277 139.352 389.277C143.106 389.042 145.921 391.39 145.921 395.851Z" fill="white"/>
<path d="M178.765 397.025C178.765 393.268 176.419 390.92 172.9 390.92C169.616 390.92 167.035 393.503 167.035 397.025C167.035 400.781 169.616 403.129 172.9 403.129C176.185 403.129 178.765 400.781 178.765 397.025ZM164.924 397.025C164.924 392.329 168.443 389.042 172.9 389.042C177.592 389.042 180.877 392.329 180.877 397.025C180.877 401.72 177.592 405.007 172.9 405.007C168.443 405.007 164.924 401.72 164.924 397.025Z" fill="white"/>
<path d="M202.225 382.703H200.114V404.772H202.225V382.703Z" fill="white"/>
<path d="M235.304 397.025C235.304 393.268 232.723 390.92 229.439 390.92C226.154 390.92 223.574 393.503 223.574 397.025C223.574 400.781 226.154 403.129 229.439 403.129C232.723 403.129 235.304 400.781 235.304 397.025ZM237.415 382.703V404.772H235.304V401.72C234.131 403.833 231.785 405.007 229.204 405.007C224.747 405.007 221.462 401.72 221.462 397.025C221.462 392.329 224.747 389.042 229.204 389.042C231.785 389.042 233.896 390.216 235.069 392.094V382.703H237.415Z" fill="white"/>
<path d="M258.295 389.277H260.406V405.007H258.295V389.277ZM257.591 384.347C257.591 383.408 258.295 382.938 259.233 382.938C260.171 382.938 260.875 383.643 260.875 384.347C260.875 385.286 260.171 385.99 259.233 385.99C258.295 385.755 257.591 385.051 257.591 384.347Z" fill="white"/>
<path d="M295.596 395.851V405.007H293.485V396.085C293.485 392.799 291.843 391.155 288.793 391.155C285.508 391.155 283.397 393.268 283.397 396.79V405.007H281.286V389.277H283.397V392.094C284.57 390.216 286.681 389.042 289.262 389.042C292.781 389.042 295.362 391.39 295.596 395.851Z" fill="white"/>
<path d="M328.675 396.555C328.675 393.033 326.094 390.686 322.81 390.686C319.291 390.686 316.945 393.033 316.945 396.555C316.945 400.077 319.291 402.424 322.81 402.424C326.329 402.424 328.675 400.077 328.675 396.555ZM330.786 389.277V403.129C330.786 408.528 328.206 410.876 323.045 410.876C320.229 410.876 317.414 409.937 315.772 408.528L316.945 406.885C318.353 408.294 320.699 408.998 323.045 408.998C327.033 408.998 328.91 407.12 328.91 403.363V401.25C327.502 403.363 325.391 404.303 322.81 404.303C318.353 404.303 314.833 401.25 314.833 396.555C314.833 392.094 318.353 389.042 322.81 389.042C325.391 389.042 327.737 390.216 328.91 392.094V389.042L330.786 389.277Z" fill="white"/>
<path d="M372.78 397.025C372.78 392.329 376.299 389.042 380.756 389.042C383.337 389.042 385.683 389.981 386.856 392.094L385.214 393.268C384.041 391.625 382.398 390.92 380.756 390.92C377.237 390.92 374.891 393.503 374.891 397.025C374.891 400.781 377.472 403.129 380.756 403.129C382.633 403.129 384.275 402.424 385.214 400.781L386.856 401.955C385.683 404.068 383.337 405.007 380.756 405.007C376.064 405.007 372.78 401.72 372.78 397.025Z" fill="white"/>
<path d="M417.824 397.025C417.824 393.268 415.478 390.92 411.959 390.92C408.675 390.92 406.094 393.503 406.094 397.025C406.094 400.781 408.675 403.129 411.959 403.129C415.478 403.129 417.824 400.781 417.824 397.025ZM404.217 397.025C404.217 392.329 407.736 389.042 412.194 389.042C416.651 389.042 420.17 392.329 420.17 397.025C420.17 401.72 416.886 405.007 412.194 405.007C407.502 405.007 404.217 401.72 404.217 397.025Z" fill="white"/>
<path d="M465.213 395.851V405.007H463.102V396.085C463.102 392.799 461.459 391.155 458.644 391.155C455.36 391.155 453.483 393.268 453.483 396.79V405.007H451.372V396.085C451.372 392.799 449.729 391.155 446.914 391.155C443.63 391.155 441.753 393.268 441.753 396.79V405.007H439.642V389.277H441.753V392.094C442.926 390.216 444.803 389.042 447.383 389.042C449.964 389.042 452.075 390.216 453.014 392.329C454.187 390.216 456.298 389.042 459.113 389.042C462.632 389.042 465.213 391.39 465.213 395.851Z" fill="white"/>
<path d="M499.699 397.025C499.699 393.268 497.119 390.92 493.834 390.92C490.55 390.92 487.969 393.503 487.969 397.025C487.969 400.781 490.55 403.129 493.834 403.129C497.119 403.129 499.699 400.781 499.699 397.025ZM501.811 397.025C501.811 401.72 498.526 405.007 494.069 405.007C491.488 405.007 489.377 403.833 488.204 401.955V410.641H486.092V389.042H488.204V392.094C489.377 389.981 491.723 388.807 494.303 388.807C498.526 389.042 501.811 392.329 501.811 397.025Z" fill="white"/>
<path d="M530.667 400.077V397.494H525.74C522.69 397.494 521.752 398.668 521.752 400.311C521.752 402.19 523.16 403.363 525.74 403.363C528.321 403.363 529.728 402.19 530.667 400.077ZM532.778 395.146V404.772H530.667V402.19C529.728 403.833 527.852 404.772 525.271 404.772C521.752 404.772 519.641 402.894 519.641 400.311C519.641 397.964 521.283 395.851 525.74 395.851H530.667V394.912C530.667 392.329 529.259 390.686 526.209 390.686C524.098 390.686 522.221 391.39 521.048 392.564L520.11 390.92C521.752 389.512 524.098 388.807 526.444 388.807C530.432 389.042 532.778 390.92 532.778 395.146Z" fill="white"/>
<path d="M567.733 395.851V405.007H565.622V396.085C565.622 392.799 563.98 391.155 560.93 391.155C557.646 391.155 555.534 393.268 555.534 396.79V405.007H553.423V389.277H555.534V392.094C556.707 390.216 558.819 389.042 561.399 389.042C565.153 389.042 567.733 391.39 567.733 395.851Z" fill="white"/>
<path d="M601.281 389.277L593.539 406.885C592.132 409.937 590.49 410.876 588.378 410.876C586.971 410.876 585.563 410.407 584.625 409.468L585.563 407.824C586.267 408.528 587.205 408.998 588.378 408.998C589.786 408.998 590.724 408.294 591.663 406.416L592.366 405.007L585.328 389.277H587.44L593.305 402.659L599.17 389.277H601.281Z" fill="white"/>
<path d="M249.615 301.472C237.885 301.472 228.735 293.02 228.735 280.107C228.735 267.195 237.885 258.743 249.615 258.743C261.345 258.743 270.26 267.195 270.26 280.107C270.26 293.02 261.345 301.472 249.615 301.472ZM251.492 244.891C241.873 244.891 233.897 248.178 228.266 254.752V245.83H212.548V339.27H228.97V305.932C234.6 312.271 242.577 315.089 251.492 315.089C271.902 315.089 287.151 301.237 287.151 279.873C286.916 258.743 271.902 244.891 251.492 244.891Z" fill="#CDAE64"/>
<path d="M321.637 303.585C313.192 303.585 308.265 299.828 308.265 293.959C308.265 289.029 311.315 284.803 322.341 284.803H339.232V292.785C336.652 299.828 329.614 303.585 321.637 303.585ZM323.749 244.891C312.488 244.891 301.696 247.709 294.189 253.343L300.523 265.082C305.684 260.856 313.895 258.273 321.872 258.273C333.602 258.273 339.232 263.908 339.232 273.299V274.238H321.168C299.819 274.238 292.078 283.159 292.078 294.663C292.078 306.637 302.165 315.323 318.118 315.323C328.675 315.323 336.183 312.037 340.171 306.167V314.619H355.654V274.473C355.654 254.282 343.924 244.891 323.749 244.891Z" fill="#CDAE64"/>
<path d="M387.794 255.691V245.596H372.076V314.15H388.498V280.812C388.498 266.725 396.475 259.682 408.908 259.682C410.081 259.682 411.254 259.917 412.662 260.152V244.891C400.932 244.891 392.486 248.413 387.794 255.691Z" fill="#CDAE64"/>
<path d="M446.21 303.585C437.764 303.585 432.838 299.828 432.838 293.959C432.838 289.029 435.888 284.803 446.914 284.803H463.805V292.785C460.99 299.828 454.186 303.585 446.21 303.585ZM448.321 244.891C437.061 244.891 426.269 247.709 418.762 253.343L425.096 265.082C430.257 260.856 438.468 258.273 446.445 258.273C458.175 258.273 463.805 263.908 463.805 273.299V274.238H445.741C424.392 274.238 416.65 283.159 416.65 294.663C416.65 306.637 426.738 315.323 442.691 315.323C453.248 315.323 460.755 312.037 464.743 306.167V314.619H480.227V274.473C480.227 254.282 468.497 244.891 448.321 244.891Z" fill="#CDAE64"/>
<path d="M529.493 297.481C517.059 297.481 508.145 289.498 508.145 277.76C508.145 266.256 517.059 258.273 529.493 258.273C541.927 258.273 550.842 266.021 550.842 277.76C550.607 289.498 541.693 297.481 529.493 297.481ZM551.311 245.596V254.752C545.446 247.943 537.001 244.891 527.147 244.891C506.972 244.891 491.723 258.039 491.723 277.994C491.723 297.95 506.972 311.332 527.147 311.332C536.531 311.332 544.742 308.28 550.607 302.176V305.698C550.607 319.549 543.804 326.593 528.32 326.593C518.702 326.593 508.614 323.306 502.514 318.375L495.242 330.349C503.218 336.688 516.121 340.209 529.259 340.209C553.892 340.209 567.029 328.94 567.029 304.054V245.83H551.311V245.596Z" fill="#CDAE64"/>
<path d="M615.357 301.472C603.627 301.472 594.712 293.02 594.712 280.107C594.712 267.195 603.627 258.743 615.357 258.743C627.322 258.743 636.237 267.195 636.237 280.107C636.237 293.02 627.322 301.472 615.357 301.472ZM615.357 315.089C637.175 315.089 652.659 300.533 652.659 279.873C652.659 259.213 636.94 244.657 615.357 244.657C593.774 244.657 578.056 259.213 578.056 279.873C578.056 300.533 593.774 315.089 615.357 315.089Z" fill="#CDAE64"/>
<path d="M703.567 244.891C693.244 244.891 684.799 248.178 679.403 254.517V245.596H663.685V314.15H680.107V279.403C680.107 265.551 688.083 258.743 699.578 258.743C710.135 258.743 716.235 264.612 716.235 276.821V314.15H732.657V274.708C732.657 254.282 720.223 244.891 703.567 244.891Z" fill="#CDAE64"/>
<path d="M45.5125 304.289V313.445C41.0551 314.384 37.3015 315.089 34.2517 315.089C26.979 315.089 21.3486 313.21 17.3604 309.454C13.3722 305.698 11.4954 300.298 11.4954 293.02V255.221H0V245.361H11.4954V226.814H22.287V245.361H43.4011V254.987H22.287V292.081C22.287 296.776 23.46 300.063 25.806 301.941C28.152 304.054 31.6711 304.993 36.5977 304.993C38.9437 304.993 41.9935 304.759 45.5125 304.289Z" fill="#CDAE64"/>
<path d="M117.535 270.716V313.21H106.743V271.89C106.743 266.256 105.336 261.795 102.286 258.508C99.236 255.221 95.2478 253.578 90.0866 253.578C84.9254 253.578 80.7026 255.221 77.1836 258.743C73.8992 262.265 72.2569 266.491 72.2569 271.89V313.21H61.4653V208.736H72.2569V253.108C77.1836 247.004 83.987 243.952 92.6672 243.952C100.409 243.952 106.509 246.3 110.966 251.23C115.189 256.161 117.535 262.499 117.535 270.716Z" fill="#CDAE64"/>
<path d="M195.422 282.69H141.933C142.637 289.264 145.218 294.663 149.91 298.889C154.602 302.88 160.232 304.993 166.801 304.993C174.543 304.993 181.346 301.941 187.446 295.837L193.78 303.115C186.273 311.097 177.123 314.854 166.566 314.854C156.478 314.854 148.033 311.332 140.995 304.524C134.191 297.715 130.672 289.264 130.672 279.403C130.672 269.543 133.957 261.091 140.76 254.282C147.564 247.474 155.775 243.952 165.393 243.952C174.308 243.952 181.581 246.77 187.446 252.639C193.311 258.508 196.36 265.786 196.36 274.708C196.36 277.055 196.126 279.873 195.422 282.69ZM142.402 273.064H185.334C185.334 267.195 183.223 262.499 179.469 258.978C175.716 255.456 170.789 253.578 165.159 253.578C159.528 253.578 154.602 255.456 150.379 258.978C146.156 262.499 143.575 267.195 142.402 273.064Z" fill="#CDAE64"/>
<path d="M388.029 44.3948C387.795 44.8644 388.499 45.8035 387.795 46.273C388.029 47.9164 387.795 49.5598 387.56 51.2032C388.264 51.438 387.56 51.9076 387.56 52.1423C387.56 52.6119 387.56 53.0814 387.326 53.551C387.56 53.7858 387.325 54.4901 387.56 54.9596C387.795 55.8987 387.56 56.3683 387.326 57.0726C387.56 59.1855 387.325 61.2985 386.856 63.4115C387.091 64.1158 387.326 64.5853 387.326 65.5244C387.326 66.4635 386.856 65.994 386.622 66.4635C386.622 66.6983 386.856 67.1678 386.856 67.6374C387.091 68.8112 387.091 69.9851 386.856 71.159C386.856 71.8633 386.856 72.3329 386.622 73.0372C386.622 73.2719 386.622 73.5067 386.622 73.7415C386.622 74.211 386.856 74.4458 386.622 75.1501C386.387 75.6197 386.152 76.324 386.622 76.7936C387.091 77.2631 386.856 77.9674 386.622 78.6717L386.387 78.437C386.387 78.6717 386.153 78.9065 386.153 79.1413C386.153 79.3761 386.153 79.6108 386.153 79.6108C386.622 80.5499 386.387 81.7238 386.622 82.6629C386.387 83.3672 386.856 84.5411 386.387 85.2454C386.387 85.4802 386.387 85.7149 386.387 85.9497C386.152 86.4193 386.152 87.1236 385.683 86.8888V87.1236V87.3584C385.683 87.5931 385.683 87.5931 385.683 87.8279C385.683 88.2975 385.683 88.767 385.449 89.0018C385.449 89.2366 385.449 89.4713 385.449 89.4713C385.683 89.9409 385.449 90.4104 385.449 90.88C385.449 92.5234 385.449 94.4016 385.449 96.045C385.449 96.2798 385.449 96.5145 385.449 96.7493C385.449 96.7493 385.449 96.7493 385.683 96.7493C385.683 97.2188 385.918 97.4536 385.449 97.6884C384.979 97.9232 385.449 98.1579 385.449 98.3927C385.449 99.097 385.449 100.036 385.449 100.74C385.449 101.68 385.449 102.384 385.449 103.323C385.918 104.497 385.683 105.436 385.449 106.61C385.449 106.845 385.449 107.079 385.449 107.314C385.449 108.253 385.449 109.427 385.449 110.366V112.949C385.449 113.888 385.449 114.827 385.449 115.766C385.449 116.94 385.683 117.879 385.214 119.053C385.214 119.992 385.214 120.931 385.214 121.87C385.214 122.105 385.214 122.34 385.214 122.574C385.449 123.279 384.979 123.513 384.979 123.983C384.979 124.218 385.214 124.218 385.214 124.687C385.214 125.157 385.214 125.626 385.214 126.096V126.8C385.449 126.8 385.449 126.8 385.683 126.566C385.683 126.566 385.918 126.566 385.918 126.8C385.683 127.27 385.214 127.27 385.449 128.209C385.449 128.444 385.683 128.678 385.683 128.913C385.918 129.383 385.918 129.852 385.918 130.322C385.683 131.026 386.622 131.731 385.918 132.435C385.918 132.67 385.918 133.139 385.918 133.374C385.683 133.844 386.387 134.548 385.918 135.017C386.152 135.487 386.152 135.956 385.683 136.191C385.683 136.426 385.683 136.661 385.683 136.896C386.152 137.13 386.152 137.6 385.918 138.304C386.152 139.009 385.918 139.713 386.153 140.417C386.153 140.652 385.918 140.887 385.918 141.121C386.152 142.061 385.683 142.53 385.683 143.469C385.683 143.704 385.918 143.939 385.918 143.939C385.918 144.878 385.918 145.582 385.683 146.521C386.152 147.226 385.683 148.165 385.683 149.104C385.683 149.339 385.449 149.573 385.449 149.808C385.449 150.982 385.683 152.156 385.214 153.33C385.214 153.799 385.214 154.269 384.979 154.504C384.745 154.504 384.745 154.269 384.745 153.799C384.51 153.799 384.041 154.034 383.807 153.095C383.572 152.156 383.572 150.747 383.103 150.043C382.868 149.339 382.399 150.043 382.164 149.808C381.93 149.808 381.695 149.808 381.46 149.808C381.226 149.808 380.991 149.808 380.991 149.808C380.991 150.043 380.757 150.043 380.757 149.808C380.757 149.808 380.757 149.573 380.522 149.573C380.522 149.339 380.522 149.339 380.522 149.104C380.287 148.869 380.287 148.634 380.053 148.399C379.818 148.869 379.349 148.634 379.114 148.634H378.88C378.411 149.104 378.176 148.869 377.707 148.869C377.472 149.339 377.238 150.043 377.003 148.869C377.003 148.634 376.768 148.165 376.534 148.399C376.065 149.104 376.065 148.165 375.83 147.93C375.83 147.695 375.595 147.695 375.595 147.46C375.361 146.991 375.595 146.286 375.361 145.582C375.361 145.582 375.361 145.582 375.361 145.347C375.361 145.347 375.361 145.347 375.126 145.347C375.126 145.347 375.126 145.347 375.126 145.113C374.892 145.113 374.657 145.113 374.657 145.113C374.657 144.878 374.657 144.643 374.657 144.408C374.188 144.174 373.953 143.704 373.953 143C373.953 142.061 374.188 142.061 374.422 141.591C374.422 141.356 374.422 141.121 374.422 140.887C374.422 140.417 374.422 140.417 374.657 140.417C374.892 140.417 374.892 140.417 374.892 140.417C375.126 140.182 375.126 139.948 374.892 139.478C374.422 139.478 374.657 138.774 374.657 138.304C374.188 138.069 374.422 137.365 374.422 136.896C373.953 136.191 374.657 136.191 374.657 135.722C374.657 135.487 374.422 135.252 374.422 135.017C374.188 134.783 374.188 134.548 373.953 134.313C373.953 134.313 373.719 134.783 373.719 134.313C373.719 133.844 373.953 133.374 374.188 133.374V133.139V132.904C374.188 132.435 373.719 132.2 373.719 131.731C373.719 131.731 373.719 131.731 373.719 131.496V131.261C373.953 131.026 373.719 130.322 373.953 130.322L374.188 130.087L373.953 129.383C373.719 129.148 373.719 128.678 373.719 128.209V127.974C373.953 127.739 373.719 127.505 373.719 127.27C373.484 126.8 373.484 126.566 373.719 126.096C373.953 125.157 373.719 124.453 373.249 124.218C373.249 124.453 373.484 124.922 373.249 125.157C373.249 125.157 373.015 124.922 372.78 124.922L372.546 125.157C372.546 124.922 372.546 124.453 372.546 124.218C372.546 123.279 372.78 122.574 372.78 121.87C372.78 121.87 372.78 121.87 372.546 121.87C372.311 121.87 372.311 121.635 372.311 121.401C372.076 121.635 372.076 122.105 371.842 122.34H371.607C371.607 122.574 371.607 122.809 371.607 123.044C371.842 123.044 371.842 123.279 371.842 123.748C371.842 124.922 371.607 125.861 371.607 127.035C371.373 127.27 371.373 127.505 371.373 127.739C371.607 127.974 371.607 128.209 371.373 128.444C371.373 128.913 371.373 129.383 371.607 129.852C371.607 130.087 371.607 130.087 371.607 130.322C371.607 130.557 371.842 130.791 371.842 131.026C371.842 131.261 371.842 131.261 371.842 131.496C371.842 131.731 371.607 131.731 371.607 131.965C371.607 132.435 371.842 132.904 371.607 133.374C371.607 133.609 371.607 133.609 371.373 133.844C371.607 134.548 371.607 135.252 371.607 135.956L371.842 136.191H372.076C372.076 135.722 372.076 135.487 372.311 135.252C372.546 135.252 372.546 135.487 372.546 135.722C372.546 136.661 372.546 137.365 372.311 138.069C372.311 138.774 371.607 138.539 371.842 139.478C371.842 139.478 371.842 139.478 372.076 139.478C372.546 139.948 372.311 140.417 372.076 141.121C372.076 141.356 372.076 141.826 371.842 141.826C371.842 142.061 371.842 142.061 371.607 142.295H371.373C371.373 143 371.373 143.704 371.373 144.408C371.373 144.878 371.373 145.582 371.842 145.347C372.076 145.582 371.842 145.817 372.076 146.052C372.076 147.226 372.076 148.165 371.842 149.339C371.842 149.573 371.842 149.808 371.842 150.043C371.842 150.512 371.842 150.982 371.607 151.452C371.607 152.156 371.373 152.86 371.373 153.564C371.373 154.034 371.373 154.504 371.373 154.973C371.373 155.443 371.373 155.677 371.373 156.147C371.373 157.321 371.373 158.26 370.903 158.964C370.669 158.729 370.669 160.138 370.434 158.964C370.2 159.199 369.73 159.199 369.496 159.434L369.261 159.669V159.903C369.496 160.138 369.496 160.608 369.496 161.077C369.496 161.312 369.496 161.782 369.261 162.016C369.027 162.016 368.792 162.016 368.792 162.016C368.323 162.721 367.854 162.955 367.384 162.721C367.15 162.721 366.915 162.955 366.681 162.955C365.977 162.955 366.446 161.782 365.977 161.312C365.742 161.312 365.508 161.312 365.508 160.842C364.804 161.782 364.1 160.608 363.396 161.077C362.927 160.842 362.692 160.138 362.692 159.434C362.458 158.495 361.989 158.26 361.519 158.964C361.285 160.842 360.581 162.486 360.346 164.599C360.346 165.303 359.877 165.068 359.408 165.303V165.538C359.408 166.477 359.408 167.416 359.173 168.355C358.704 169.529 358.704 171.407 357.766 171.877C357.531 172.816 357.297 172.816 357.062 171.877C356.593 172.346 356.358 172.346 356.358 170.938C356.358 170.468 356.358 169.764 356.358 169.294C356.124 169.294 356.124 169.764 355.889 169.294C355.42 169.294 355.185 169.294 354.716 169.294C354.481 170.938 353.778 169.999 353.308 169.999C352.839 169.999 353.308 168.825 353.308 168.355C353.308 168.12 353.074 168.12 353.074 167.886C352.605 167.651 352.605 169.764 351.901 169.06C352.37 168.59 352.37 167.651 352.839 166.947C353.074 166.477 352.839 166.007 352.605 166.007C352.135 166.007 351.901 165.303 351.666 164.599C351.432 163.66 351.666 162.721 351.901 161.782C351.901 161.547 352.135 161.312 352.135 160.842C351.901 159.434 352.135 157.79 351.432 156.382C350.962 155.677 351.666 154.738 352.37 154.504V154.269C352.37 154.034 351.901 154.034 352.135 153.564C351.901 152.625 351.666 151.686 351.666 150.747C351.901 147.93 351.197 145.113 350.962 142.295C350.962 141.591 351.197 140.887 350.962 140.417C350.728 139.478 350.728 138.304 350.962 137.365C350.962 136.426 351.432 135.252 350.493 135.017C350.259 134.783 350.259 133.609 350.493 133.139C351.432 131.965 351.197 130.557 350.962 128.913C350.259 128.678 350.024 128.209 350.259 127.035C350.259 126.096 350.493 125.157 349.555 125.157C349.32 125.157 349.32 124.687 349.32 124.218C349.32 122.809 349.555 120.931 349.32 119.757C349.086 117.879 349.32 116.235 349.32 114.592C349.32 114.123 349.086 113.888 348.851 113.888C348.147 114.123 348.147 113.418 348.147 112.714C348.147 112.01 348.147 111.54 347.678 111.07C347.209 110.836 347.209 108.723 347.678 108.488C348.382 108.253 348.147 107.314 348.147 106.61C348.147 105.436 348.382 104.966 348.851 104.497V103.793C348.382 103.323 347.913 102.619 347.443 102.619C347.209 102.619 347.209 102.384 347.209 101.914C347.209 100.036 346.74 98.1579 347.209 96.2798C347.443 94.8711 346.974 93.6972 346.974 92.2886C346.974 91.3495 347.443 91.3495 347.678 91.1147C348.147 90.6452 348.616 89.9409 347.913 89.2365C347.209 88.5322 347.443 87.1236 347.443 86.1845C347.678 83.8368 347.443 81.7238 347.443 79.3761C347.443 78.6717 347.443 78.2022 347.443 77.4979C347.443 75.8545 347.443 74.211 346.974 72.8024C346.74 71.8633 346.974 70.9242 346.974 70.2199C347.209 68.5765 346.974 67.1678 347.209 65.5244C347.209 64.5853 347.209 63.881 347.678 63.1767C348.147 62.2376 347.443 61.0637 347.678 60.1246C347.443 60.3594 346.974 61.2985 347.209 59.8899C347.209 58.4812 346.74 56.8378 347.678 55.8987V55.4292C346.974 54.7248 347.209 53.551 347.209 52.6119C347.209 50.7337 347.209 48.8555 347.209 46.9773C347.209 45.5687 347.209 44.3948 347.678 43.4557C347.209 43.4557 346.974 43.2209 347.209 42.5166C347.209 42.0471 347.209 41.8123 347.443 41.5775C347.678 41.5775 347.678 41.5775 347.913 41.5775C347.913 40.6384 348.147 39.6993 347.913 38.7603C347.913 38.5255 347.913 38.0559 347.913 37.8212C347.678 35.4734 347.913 33.5952 348.616 31.4823C348.851 31.0127 349.086 30.778 349.086 30.3084C348.851 29.8389 348.147 29.8389 348.851 28.8998C349.086 28.665 349.086 28.4302 349.086 27.9607C348.851 26.7868 349.32 25.6129 349.086 24.6738C348.851 24.2043 349.086 23.7347 349.086 23.5C349.086 23.0304 348.851 22.5609 349.32 22.5609C349.32 22.5609 349.555 23.0304 349.555 23.2652C350.024 23.0304 349.32 21.8566 350.024 21.8566C350.493 20.6827 350.728 19.5088 350.259 18.335C349.789 17.3959 350.493 16.9263 350.493 16.222C350.259 14.5786 350.728 13.6395 351.197 12.7004C352.135 13.1699 352.839 11.5265 353.778 11.9961C354.012 11.9961 354.247 12.4656 354.716 12.2308C354.951 11.9961 355.185 11.5265 355.185 10.8222C355.185 10.3527 354.951 9.88311 355.42 9.64834C355.889 9.17879 355.889 8.47447 356.124 7.53538C356.124 7.06583 356.358 6.59628 356.358 6.12674C356.593 5.42242 356.827 4.7181 357.062 4.01378C356.827 3.54423 356.827 3.30946 357.062 2.83991C357.766 2.37036 358.235 1.90082 358.939 1.43127C358.939 1.43127 358.939 1.43127 359.173 1.1965C359.408 1.1965 359.408 1.1965 359.643 1.1965H360.346C360.346 1.66604 360.346 1.90082 360.346 2.37036C360.346 4.48332 360.346 6.83106 360.346 8.94402C360.346 9.17879 360.581 9.17879 360.581 9.41357C360.816 9.41357 360.816 9.41357 361.05 9.41357C361.05 8.94402 361.05 8.47447 361.285 8.00493C361.519 7.53538 361.519 7.06583 361.285 6.59628C361.285 5.18764 361.754 4.7181 362.458 5.42242C362.458 4.48332 362.927 4.01378 363.162 3.779C363.396 3.54423 363.631 3.30946 363.865 3.07468C364.1 3.07468 364.569 3.07468 364.804 3.07468C365.038 3.07468 365.273 2.83991 365.508 3.30946C365.977 3.30946 365.977 4.24855 366.446 4.24855C366.681 4.24855 366.915 4.24855 367.15 4.24855C367.854 4.01378 368.323 4.48332 368.557 5.42242C369.496 5.18764 370.2 5.89196 370.903 6.83106C371.138 6.83106 371.373 6.83106 371.373 7.3006C371.842 7.53538 372.076 8.70925 372.546 9.17879L372.78 9.41357C373.015 9.64834 373.249 9.88311 373.249 9.17879C373.249 8.70925 373.249 8.2397 373.484 7.77015C374.188 8.47447 374.657 6.12674 375.361 7.53538H375.595C376.065 7.30061 376.768 7.3006 377.003 8.47447C377.472 8.70925 377.707 7.77015 377.941 7.53538C377.941 7.06583 377.941 6.36151 378.411 6.36151C378.411 5.18764 378.645 5.18764 379.114 5.65719C379.584 5.42242 379.818 4.24855 380.522 4.01378C380.522 3.54423 380.991 3.54423 380.991 3.07468C381.46 2.37036 382.164 1.66604 382.868 1.66604C383.103 1.43127 383.103 1.1965 383.103 0.726948C383.337 0.492175 383.806 -0.446919 384.041 0.257401C384.51 0.492175 384.745 1.43127 384.51 2.37036C384.745 2.60514 385.214 2.83991 385.449 3.07468C386.622 3.30946 387.091 3.779 387.326 6.12674C387.326 6.36151 387.326 6.36151 387.326 6.59628C387.56 7.06583 387.326 7.53538 387.326 8.00493C387.326 8.2397 387.326 8.47447 387.326 8.70925C387.56 8.94402 387.795 9.41357 387.56 9.88311C387.56 10.1179 387.56 10.3527 387.56 10.5874C387.795 11.057 387.795 11.7613 387.795 12.4656C387.795 12.7004 387.795 12.9352 387.795 13.1699C388.029 14.3438 388.029 15.5177 388.029 16.6915C388.029 17.1611 388.029 17.8654 388.029 18.335C388.498 19.2741 388.029 19.9784 387.795 20.9175V21.1522C387.795 21.1522 387.795 21.1522 388.029 21.1522C388.498 21.8566 388.264 22.5609 388.264 23.2652C388.029 23.9695 388.733 24.9086 388.029 25.6129C388.264 25.8477 388.264 25.8477 388.264 26.0825C388.029 26.552 388.264 27.2563 388.264 27.7259C388.264 28.4302 388.498 29.1345 388.264 29.6041V29.8389C388.029 30.778 388.733 31.9518 388.029 32.6561C388.029 33.3605 388.499 33.3605 388.499 34.0648C388.499 35.4734 388.733 36.8821 388.264 38.2907C388.264 38.2907 388.499 38.5255 388.499 38.7603C388.499 39.2298 388.499 39.6993 388.499 40.1689V40.4037C388.499 41.108 388.968 41.5775 388.733 42.0471C388.733 42.2818 388.733 42.5166 388.733 42.7514C388.498 42.7514 388.029 43.6905 388.029 44.3948ZM447.383 104.262C448.087 103.793 447.383 102.853 447.618 102.149C447.618 101.914 447.149 101.914 447.383 101.445C447.852 100.271 447.383 100.506 446.914 100.506C446.679 100.506 446.679 100.506 446.445 100.271V100.036C446.679 99.8014 446.679 99.8014 446.914 100.036C447.149 100.271 447.383 100.271 447.618 100.036C447.852 99.8014 447.618 99.3318 447.618 99.097C447.618 98.1579 446.914 98.1579 446.914 97.4536C446.914 97.2188 446.914 96.9841 446.914 96.7493C447.149 95.8102 446.445 94.4016 447.618 93.932C447.852 93.932 447.852 92.9929 447.618 92.7581C447.383 92.5234 447.383 92.0538 446.914 92.5234C446.679 92.7582 446.445 92.7582 446.21 92.0538C445.976 91.5843 446.445 90.88 446.21 90.4104C445.976 89.7061 445.976 88.767 446.21 88.0627C446.21 87.3584 446.679 86.4193 445.741 85.9497C447.149 85.9497 447.149 85.9497 447.149 84.0715C447.383 84.0715 447.383 84.0715 447.618 84.0715C447.149 83.8368 447.149 83.3672 447.149 82.8977C447.149 81.9586 447.149 81.2542 446.679 80.5499C446.21 79.8456 446.445 79.1413 446.914 78.437C447.149 77.9674 447.149 77.7326 446.679 77.7326C446.445 77.7326 446.21 77.9674 446.21 77.4979C446.21 77.2631 446.445 77.2631 446.445 77.2631C447.149 77.0283 447.383 76.7936 446.679 75.8545C446.445 75.6197 446.445 74.9154 446.679 74.6806C446.914 74.211 446.679 73.7415 446.445 73.5067C446.679 72.8024 446.914 72.0981 445.976 72.3329C445.976 71.6285 445.976 71.159 446.445 71.159C446.679 71.159 446.914 70.9242 446.679 70.6894C447.149 69.9851 447.618 69.2808 446.679 68.5765C446.679 68.5765 446.445 68.1069 446.679 68.1069C447.383 66.4635 446.445 64.8201 446.679 63.4115C446.679 62.2376 446.21 61.2985 446.445 60.1246C446.679 59.6551 447.149 59.1855 446.21 58.9508C445.976 58.9508 445.976 58.716 445.976 58.4812V58.2464C445.976 58.0117 445.976 57.7769 445.976 57.5421C445.976 57.5421 445.976 57.3074 446.21 57.3074C446.21 57.3074 446.21 57.3074 446.445 57.3074C446.914 57.0726 446.679 56.603 446.679 56.1335C446.679 55.4292 446.679 54.9596 446.914 54.7248C447.149 54.4901 447.383 54.2553 447.149 54.0205C447.149 53.551 446.679 53.551 446.445 53.551C446.21 53.551 445.976 53.3162 445.741 53.3162C445.976 52.8467 446.679 53.3162 446.914 52.6119C446.679 52.6119 446.21 52.6119 445.976 52.6119C445.506 52.6119 445.037 52.6119 445.741 51.6728C446.21 50.9685 445.976 49.7946 445.506 49.3251C445.741 48.8555 446.445 48.6207 445.976 48.1512C445.506 47.6816 445.741 47.4469 445.741 46.9773C445.741 46.5078 445.976 45.8035 445.506 45.3339C445.272 45.0991 445.272 44.6296 445.741 44.3948C446.679 44.16 445.976 43.6905 445.741 43.4557C445.741 42.0471 445.506 40.8732 445.741 39.4646C445.741 39.4646 445.741 39.2298 445.741 38.995C445.506 38.2907 445.506 37.1168 444.803 37.1168C444.099 37.1168 444.568 38.2907 444.333 38.995C444.333 39.6993 444.568 40.8732 444.333 41.108C443.63 41.5775 443.864 42.5166 443.864 43.2209C443.63 42.2818 443.395 41.8123 442.926 42.7514H442.691C442.457 42.5166 442.222 42.2819 442.457 42.2819C442.926 41.108 442.222 41.5775 441.987 41.3428C441.987 41.108 441.987 40.8732 441.987 40.6384C442.457 40.6384 442.457 40.1689 442.457 39.6993C442.457 38.0559 443.16 36.4125 442.691 34.7691C442.691 34.7691 442.691 34.5343 442.691 34.2996C443.395 32.8909 442.691 31.717 442.691 30.5432C442.926 30.3084 442.926 30.3084 442.691 30.0736C442.691 29.3693 443.16 29.8389 443.16 29.1345C442.691 28.665 442.457 28.1954 441.987 27.7259C441.753 27.4911 441.753 27.0216 441.987 26.7868C442.222 25.8477 442.222 25.6129 441.518 25.3782C441.049 25.1434 440.814 24.9086 440.814 24.2043C440.814 23.7347 440.814 23.5 440.58 23.0304C440.345 23.5 440.111 23.7347 439.641 23.7347C439.407 23.7347 439.172 23.2652 439.407 23.0304C439.641 22.3261 439.172 21.8566 439.172 21.1522C439.172 20.6827 438.938 20.6827 438.703 20.6827C438.468 20.6827 438.234 20.6827 438.234 21.1522C437.765 22.0913 437.999 23.0304 437.999 23.9695C437.999 24.2043 438.234 24.4391 438.234 24.4391C437.53 24.9086 437.53 25.8477 437.999 26.7868C437.999 27.2563 437.999 27.4911 437.765 27.9607C437.295 28.665 436.592 29.6041 436.826 31.0127C436.592 31.0127 436.122 31.0127 435.888 31.0127C435.653 31.0127 435.419 31.0127 435.419 31.4823C435.653 32.4214 435.184 31.9518 434.949 31.9518C434.715 31.9518 434.246 31.9518 434.011 31.9518C434.011 31.0127 433.542 30.0736 433.542 29.1345C433.542 28.8998 433.307 28.8998 433.307 28.8998C433.073 28.8998 433.073 29.1345 433.073 29.3693C432.838 30.3084 432.369 30.3084 432.134 29.3693C432.369 29.1345 432.603 29.8389 432.838 29.1345C432.838 28.665 432.369 29.1345 432.369 28.665C432.134 27.7259 430.961 26.7868 430.492 27.2563C429.788 27.7259 429.319 27.7259 428.615 27.7259C428.146 27.7259 427.911 27.7259 427.442 28.1954C427.208 28.1954 427.208 28.1954 426.973 28.1954C426.738 27.4911 426.269 27.2563 426.035 28.1954C425.8 29.1345 425.331 28.4302 424.862 28.665C424.627 28.665 424.392 28.665 423.923 28.665C424.627 29.6041 424.158 30.0736 423.689 30.3084C423.454 30.5432 423.454 30.778 423.454 31.0127C423.454 31.4823 423.454 31.9518 423.454 32.8909C423.219 32.4214 423.454 31.717 423.219 31.4823C422.985 31.2475 422.75 31.9518 422.516 32.1866C422.281 32.4214 422.046 32.6561 422.516 32.8909C422.75 32.8909 422.516 33.3605 422.281 33.3605C421.812 34.2996 421.108 33.83 420.404 33.5952C420.639 32.8909 421.577 33.1257 421.577 31.4823C421.577 30.5432 421.343 30.0736 420.873 29.3693C420.639 29.1345 420.404 28.8998 420.404 28.1954C420.404 27.4911 420.639 26.7868 419.935 26.552V26.0825C420.404 25.3782 419.935 24.6738 419.935 23.9695C419.7 23.2652 420.404 22.5609 420.17 22.0913C419.935 20.6827 419.7 19.5088 419.466 18.1002C419.7 17.3959 419.231 16.6915 419.231 15.9872V15.7524C419.466 14.109 418.762 12.7004 418.997 11.2918C418.527 11.2918 418.762 11.9961 418.527 11.7613C418.293 11.5265 418.527 11.2918 418.293 11.057C418.293 10.3527 418.293 9.88311 418.527 9.17879C418.293 8.94402 418.058 9.41357 417.824 9.17879C417.824 8.70925 418.058 8.70925 418.058 8.47447C418.293 8.2397 418.527 8.2397 418.762 7.53538C418.293 7.77015 418.058 8.00493 417.824 7.77015C417.12 7.53538 416.885 8.00493 417.12 8.94402C417.12 9.64834 417.12 10.3527 416.885 11.057C416.651 11.2918 416.416 11.5265 416.416 11.9961C416.416 12.2308 416.416 12.4656 416.181 12.4656C415.947 12.4656 415.947 11.9961 415.947 11.7613C415.712 10.3527 415.008 9.17879 414.774 7.53538C414.774 8.70925 414.774 9.88311 414.774 11.2918C414.539 11.2918 414.305 10.1179 414.07 10.8222C413.835 11.5265 413.366 11.9961 413.132 12.9352C412.897 13.4047 412.897 14.3438 412.193 13.6395C411.959 13.4047 411.959 13.8743 411.959 14.109C411.959 14.5786 411.959 15.0481 411.959 15.2829C411.959 15.5177 411.959 15.5177 411.959 15.7524C411.959 15.9872 411.959 16.222 411.959 16.4568C411.959 16.6915 411.724 16.6915 411.724 16.9263C411.489 19.5088 411.255 21.8566 411.255 24.4391C411.255 25.1434 411.489 25.8477 411.255 26.3173C410.786 27.0216 410.316 27.4911 411.02 28.4302C411.255 28.8998 411.255 29.3693 411.02 29.8389C410.786 31.0127 410.551 31.9518 411.02 33.1257C411.255 33.3605 411.02 33.83 411.02 34.2996C410.786 35.2386 410.786 36.4125 411.02 37.3516C411.02 37.5864 411.02 37.5864 411.02 37.8212C410.786 38.0559 411.02 38.5255 410.786 38.7603C410.551 38.995 410.551 39.4646 410.551 39.6993C410.786 40.6384 410.786 41.5775 410.316 42.5166C410.082 42.7514 410.316 43.2209 410.082 43.6905C409.847 45.3339 410.551 46.7425 410.551 48.386C410.316 48.6207 410.316 49.0903 410.082 49.0903C409.847 49.0903 409.847 49.5598 409.847 49.5598C410.551 50.0294 410.316 50.9685 410.316 51.9076C410.082 52.6119 410.082 53.551 410.082 54.2553C409.847 54.7248 409.847 55.4292 409.847 56.1335C409.847 58.4812 410.082 60.5942 409.847 62.9419V63.1767C409.378 63.881 409.613 62.7071 409.143 62.9419C409.143 63.4115 408.674 64.1158 409.378 64.3506C409.613 64.3506 409.378 64.8201 409.378 65.2896L409.143 65.5244C409.143 66.4635 408.909 67.6374 408.909 68.5765C408.909 68.8113 408.909 69.046 409.143 69.046C409.378 69.046 409.378 68.8113 409.378 69.2808C409.378 69.5156 409.378 69.9851 409.143 69.9851C408.909 69.9851 408.674 70.2199 408.674 70.6894C408.674 71.159 408.674 71.6285 408.44 71.8633C407.97 71.3938 408.205 70.4547 407.97 69.7504C407.97 69.5156 407.736 69.2808 407.501 69.2808C407.267 69.2808 407.267 69.5156 407.267 69.9851C407.267 70.2199 407.267 70.6894 407.267 70.9242C407.736 72.8024 407.267 74.9154 407.501 76.7936C407.97 77.4979 407.501 78.2022 407.736 78.9065C407.736 79.1413 407.736 79.3761 407.97 79.6108C407.736 81.0195 407.736 82.4281 408.205 83.602C408.44 84.0715 408.205 84.0715 407.97 84.3063C407.736 85.4802 407.736 86.4193 407.736 87.5931C407.736 88.2975 407.97 89.0018 407.97 89.9409C407.736 90.1756 407.736 90.1756 407.736 90.4104C407.736 90.88 407.97 91.3495 407.736 91.5843C407.032 92.2886 407.736 93.2277 407.501 94.1668C407.501 95.8102 407.267 97.2188 407.736 98.8623C407.501 99.3318 407.736 100.036 407.267 100.271C406.797 100.506 407.032 101.21 407.032 101.68C407.032 102.384 407.501 101.445 407.501 101.68V101.914C407.267 102.384 407.267 102.853 407.501 103.323C407.97 104.262 407.736 104.497 407.032 104.966C407.267 105.201 407.501 105.436 407.267 105.436C407.032 105.671 406.563 105.671 407.032 106.14C406.328 107.549 406.797 108.723 407.501 109.662C407.267 109.897 407.032 110.131 406.797 110.366C406.094 111.07 406.563 111.305 407.032 111.54C406.563 112.714 407.267 113.653 407.267 114.827C407.267 114.827 407.267 114.827 407.032 114.827L406.797 115.062C406.563 116.47 407.032 118.114 406.563 119.522V119.757C406.563 119.992 406.563 119.992 406.563 120.227C406.094 120.461 406.094 120.931 406.328 121.401C406.563 121.87 406.563 122.34 406.328 122.574C405.859 123.279 406.094 124.218 406.094 124.922V125.157C406.094 125.626 406.094 126.096 406.094 126.566C406.094 128.678 406.094 130.791 406.563 132.904C406.797 133.374 406.797 134.078 406.328 134.548C405.859 135.252 405.624 136.191 405.859 137.365C405.859 137.835 406.094 138.304 405.859 138.774C405.624 139.948 405.39 140.887 405.859 141.826C405.859 142.061 405.624 142.53 406.094 142.53C406.328 142.53 406.563 142.061 406.563 141.826C406.563 140.417 407.032 139.478 407.501 138.304C407.501 138.069 407.501 137.835 407.501 137.6C407.736 137.365 407.736 136.661 408.205 136.896C408.205 137.13 408.205 137.365 408.44 137.6C408.674 138.539 408.205 139.713 409.143 140.417C409.143 140.652 409.143 140.887 409.143 140.887C408.909 141.356 408.909 142.061 408.674 142.53C408.44 143 408.909 143 409.143 143C409.378 143 409.378 143.234 409.378 143.234C409.847 143.469 410.316 143.704 410.551 143.939C411.02 144.643 411.724 143.704 412.193 144.408L412.428 144.643C412.662 144.643 412.897 144.643 413.132 144.408C413.366 144.643 413.601 145.113 414.07 145.347C414.07 144.408 414.774 144.878 415.008 144.408H415.243C415.243 144.643 415.478 144.643 415.712 144.643C415.712 144.643 415.712 144.878 415.947 144.878V145.113C415.712 145.113 415.478 145.113 415.008 144.878C415.478 145.582 415.712 145.582 416.181 145.347C416.416 145.817 416.885 145.582 417.12 145.347C417.354 145.347 417.824 145.347 418.058 145.347C418.527 145.582 418.997 145.347 419.466 144.643C419.466 144.408 419.7 144.408 419.7 144.174C419.935 144.174 419.935 144.174 420.17 144.174C420.639 143.704 421.108 143.234 421.577 142.53C422.046 142.53 422.046 142.061 422.046 141.826C422.985 141.356 423.923 140.887 423.454 139.009V138.774C423.923 138.539 424.392 138.539 424.862 138.304C424.862 138.304 425.096 138.774 425.331 139.243C425.096 139.243 424.862 139.478 425.096 139.948C425.331 140.182 425.565 140.182 425.565 139.713C425.8 139.713 425.8 139.713 426.035 139.713C426.269 139.948 426.504 139.713 426.738 139.713C427.442 139.713 428.146 139.713 428.85 139.713C430.023 140.182 431.196 140.182 432.134 140.182C432.134 140.652 432.603 140.652 432.369 141.121C432.369 141.356 431.9 141.826 432.134 141.826C432.838 142.061 432.369 143 432.603 143.704C432.603 144.408 432.369 145.113 432.838 145.817C432.838 146.286 432.603 146.756 432.838 147.226C433.307 147.93 434.011 148.399 434.48 149.339C434.949 149.339 435.419 149.573 435.888 149.573C436.357 149.339 437.061 149.808 437.295 148.634V148.399V148.165C437.53 148.165 437.765 148.634 437.999 148.399C438.234 147.93 437.295 147.695 437.999 147.226C438.234 147.226 438.703 147.46 438.703 146.756C438.703 146.052 438.234 146.286 437.999 145.817C438.938 146.286 439.641 146.052 440.345 145.817C441.049 145.582 441.753 144.878 442.457 144.878C442.691 144.878 442.691 144.643 442.691 144.408C442.691 144.174 442.457 144.174 442.457 143.939C442.222 143.939 441.753 144.174 441.518 143.704C441.987 143.234 442.926 143.939 443.16 142.765C442.691 142.765 442.222 143 441.753 142.53C441.987 142.061 442.457 142.295 442.691 142.295C442.926 142.295 443.16 142.061 442.926 141.826C442.457 141.121 443.16 141.121 443.395 140.652C443.864 140.182 444.803 139.948 444.099 138.539V138.304C444.568 137.835 444.333 137.6 444.099 137.13C443.864 136.896 443.864 136.661 443.864 136.191C444.568 135.487 444.803 134.313 444.333 133.374C443.864 132.435 444.333 131.261 444.333 131.026C445.037 130.087 444.333 130.087 444.099 129.852C444.099 129.618 443.864 129.618 443.864 129.383C445.037 129.383 444.333 127.974 444.568 127.27C445.976 127.27 445.976 126.8 445.976 124.922C445.976 124.687 445.976 124.218 445.976 123.983C445.741 122.574 446.679 121.166 445.976 119.992C445.976 119.757 445.976 119.522 446.21 119.522C446.445 119.522 446.445 119.288 446.445 119.053C446.21 118.348 446.21 117.644 446.445 116.94C446.679 116.235 446.914 115.296 445.976 115.531C445.741 115.531 445.506 115.062 445.037 114.827C445.272 114.592 445.272 114.592 445.506 114.592C446.21 115.296 446.21 114.592 446.445 113.888C446.679 112.479 446.445 110.836 445.506 109.897C446.445 109.427 446.21 108.018 446.21 107.079V106.845C447.149 106.61 447.383 106.375 446.914 104.966C447.383 104.497 447.383 104.262 447.383 104.262ZM325.86 104.262C325.86 104.027 325.86 103.793 325.86 103.793C325.86 102.619 325.86 101.445 325.86 100.271V100.036C326.095 99.3318 325.626 98.8623 325.626 98.1579C325.86 97.4536 325.626 96.7493 325.86 96.045C325.86 95.1059 325.86 93.932 325.86 92.9929C325.86 92.7581 325.86 92.5234 325.86 92.2886C326.095 91.8191 325.86 91.1147 325.86 90.6452C325.86 90.4104 325.86 90.1756 325.86 89.9409C326.095 88.767 326.095 87.5931 325.86 86.4193C325.86 85.7149 325.626 85.2454 325.626 84.5411C325.86 83.8368 325.86 83.1324 325.86 82.4281C326.095 81.489 326.095 80.5499 325.86 79.6108C326.095 79.3761 326.095 79.1413 325.86 78.6717C325.86 78.437 325.86 78.2022 325.86 77.9674C326.095 77.2631 325.86 76.5588 325.626 75.8545C325.626 75.6197 325.626 75.3849 325.626 75.3849C325.626 75.1501 325.626 74.9154 325.626 74.9154C325.626 73.9763 325.86 73.0372 325.626 72.0981V71.8633C325.626 71.159 325.86 70.4547 325.626 69.7504C325.626 68.1069 325.626 66.6983 325.626 65.0549C325.626 64.3506 325.626 63.6462 325.626 63.1767V62.9419C325.391 61.2985 325.156 59.4203 325.156 57.7769C325.156 57.0726 325.391 56.603 325.156 55.8987C324.687 52.1423 324.922 48.6207 324.687 44.8644C324.687 43.6905 324.453 42.7514 324.218 41.5775C324.218 39.4646 323.983 37.1168 323.749 35.0039C323.749 33.1257 323.983 31.4823 323.983 29.6041C323.983 27.9607 323.983 26.552 323.983 25.1434C323.983 24.2043 323.514 23.7347 323.045 24.2043H322.81C322.107 22.3261 322.107 20.2131 322.107 18.335C322.107 17.3959 322.107 16.6915 322.107 15.7524C321.637 15.5177 321.168 15.2829 320.699 14.8134C320.699 15.0481 320.699 15.2829 320.699 15.5177C319.761 18.1002 319.526 20.9175 319.526 23.7347C319.526 23.9695 319.526 24.2043 319.526 24.2043V24.4391C319.526 24.6738 319.526 24.9086 319.526 24.9086C319.291 25.6129 319.526 26.552 319.291 27.4911C319.291 27.9607 319.291 28.665 318.588 28.1954V27.9607C318.822 26.7868 318.353 25.8477 318.353 24.6738C318.353 24.2043 318.353 23.7347 318.353 23.2652C318.353 22.5609 318.353 21.8566 318.118 21.387V18.8045C316.945 19.7436 317.18 21.1522 317.18 22.3261C317.18 23.2652 316.945 23.9695 316.945 24.9086C316.945 27.2563 316.242 29.6041 316.242 31.9518C316.242 32.1866 316.242 32.1866 316.242 32.1866C316.007 32.6561 316.242 33.3605 315.538 33.3605C315.538 31.2475 315.538 29.1345 315.069 27.0216C315.069 26.552 315.303 26.0825 314.834 25.6129C314.834 25.3782 315.069 25.1434 315.069 24.9086C315.069 24.4391 315.303 23.9695 315.303 23.7347C315.303 21.8566 315.538 19.9784 316.007 18.335C316.242 17.6306 316.007 16.9263 315.303 17.1611C314.599 17.1611 314.13 16.9263 314.365 15.7524C314.365 15.2829 314.365 14.3438 313.661 14.5786C313.192 14.8134 312.723 15.0481 312.488 15.7524C312.019 16.222 311.55 16.222 311.08 15.9872C310.846 15.5177 310.846 15.0481 311.08 14.5786C311.315 14.109 311.55 13.4047 311.315 12.9352C311.08 12.4656 310.611 13.1699 310.377 13.4047C310.142 13.6395 309.907 13.4047 309.673 13.6395C308.969 13.6395 308.5 13.8743 308.265 15.0481C307.561 15.5177 307.327 16.4568 306.858 17.1611H306.623C306.154 16.6915 305.685 15.9872 304.981 16.4568C304.042 15.2829 303.339 15.9872 302.635 16.9263C302.4 16.9263 302.4 17.1611 302.166 17.6306C301.931 17.6306 301.696 17.8654 301.696 18.1002C300.758 17.6306 300.289 18.335 299.585 18.8045C297.943 18.8045 297.474 20.4479 297.004 22.0913C296.77 22.5609 296.301 22.5609 296.066 22.7957C295.597 22.3261 295.597 21.1522 294.658 22.0913C293.016 20.9175 292.782 20.9175 292.312 22.5609C292.312 22.7957 292.078 23.0304 292.078 23.2652C291.843 23.2652 291.843 23.5 291.843 23.7347C291.609 23.9695 291.374 24.2043 291.139 24.4391C290.67 24.4391 290.905 24.9086 290.67 25.1434C290.436 25.1434 290.201 25.1434 289.966 25.1434C289.732 25.1434 289.732 24.9086 289.497 24.9086C289.263 24.9086 289.497 25.1434 289.497 25.3782C289.028 26.3173 289.497 27.4911 288.793 28.1954C288.09 28.8998 287.386 29.3693 286.447 28.4302C285.978 28.1954 285.744 29.6041 285.274 28.4302C285.509 29.3693 285.744 30.0736 285.744 30.778C285.744 31.717 285.509 32.6561 285.509 33.5952C285.274 34.0648 285.509 34.5343 285.509 35.0039C285.509 35.4734 285.274 35.943 285.509 36.4125C285.274 36.6473 285.274 37.1168 285.274 37.5864V37.8212C284.805 38.2907 285.04 38.995 285.274 39.4646C285.274 39.6993 285.274 39.6993 285.274 39.9341C285.274 40.1689 285.274 40.6384 285.509 40.8732C285.509 41.3428 285.509 42.0471 285.274 42.5166C285.274 42.7514 285.274 42.7514 285.274 42.9862C285.509 43.4557 284.805 44.3948 285.744 44.3948C285.744 44.3948 285.744 44.3948 285.744 44.6296C285.04 45.5687 284.805 46.9773 285.274 48.386C285.274 48.8555 285.274 49.3251 285.274 49.7946V50.0294C285.04 50.7337 284.805 51.2032 285.509 51.6728C285.274 51.9076 285.274 52.3771 285.274 52.6119C284.805 52.6119 285.04 53.3162 284.805 53.551C284.805 54.2553 284.571 55.1944 285.274 55.8987C285.274 56.1335 285.274 56.3683 285.274 56.3683C285.274 56.603 285.274 56.8378 285.274 57.3074C284.805 57.7769 285.509 58.4812 285.274 58.9508L285.04 59.1855C284.571 59.4203 284.805 59.6551 285.04 60.1246C285.04 60.3594 285.274 60.5942 285.274 60.829C285.274 61.0637 285.274 61.0637 285.274 61.2985C285.274 61.5333 285.274 61.768 285.274 62.0028V62.2376C285.04 62.4724 284.805 62.7071 285.274 63.1767C285.274 63.4115 285.509 63.6462 285.509 63.6462C285.509 63.881 285.509 64.1158 285.509 64.1158C285.274 64.3506 285.274 64.8201 285.274 65.0549C285.274 65.2896 285.274 65.5244 285.509 65.7592C285.978 66.4635 285.744 66.9331 285.274 67.4026C285.04 67.6374 284.571 67.8722 285.274 68.1069C285.274 68.5765 285.04 69.2808 285.509 69.7504C285.274 69.9851 285.274 70.2199 285.274 70.6894C285.274 70.9242 285.274 71.3938 285.509 71.3938C285.509 72.0981 285.509 72.8024 285.509 73.5067V73.7415L285.274 73.9763C285.04 73.9763 285.04 73.9763 285.04 74.211C285.04 74.4458 285.274 74.6806 285.274 74.6806C285.509 74.9154 285.744 75.1501 285.744 75.6197C285.978 76.0892 285.978 76.7936 286.213 77.2631C286.213 77.4979 286.213 77.4979 285.978 77.7326H286.213C286.213 77.7326 286.213 77.7326 285.978 77.7326C285.744 78.2022 285.744 78.437 285.978 78.9065C285.978 79.1413 286.213 79.6108 285.978 79.8456C285.274 80.0804 285.509 80.7847 285.744 81.2542C285.744 81.7238 285.744 82.1933 285.978 82.6629C285.744 83.3672 285.509 83.8368 285.744 84.5411C285.744 85.0106 285.744 85.2454 285.744 85.715C285.744 86.1845 285.744 86.654 286.213 86.1845C286.447 86.4193 286.682 86.654 286.213 86.8888C285.978 86.8888 285.744 86.654 285.744 87.3584C285.744 88.2975 285.744 88.767 286.213 89.2365C286.447 89.4713 286.447 89.7061 286.213 89.9409C285.744 89.9409 285.509 90.4104 285.509 90.88C285.509 91.5843 286.213 91.1147 286.213 91.8191C286.213 92.2886 286.447 92.7582 286.447 93.2277C286.447 93.4625 286.447 93.6972 286.447 93.932C286.213 94.1668 286.213 94.4016 286.213 94.8711C286.917 95.3407 286.213 95.8102 286.213 96.5145C285.744 97.4536 285.978 98.6275 286.213 99.5666C285.978 100.036 285.978 100.506 286.447 100.975C286.682 101.68 286.213 102.384 286.447 103.088C286.447 103.793 286.447 104.497 286.447 104.966C286.447 105.436 286.447 106.14 286.447 106.61C286.447 107.314 286.447 107.784 286.447 108.488C286.447 109.192 286.447 109.897 286.682 110.366C286.447 110.601 286.447 110.836 286.682 111.07V111.305C286.447 112.714 286.682 114.123 286.682 115.296C286.917 117.175 286.682 119.288 287.151 121.401C286.917 123.044 287.151 124.453 287.151 126.096C287.151 126.566 287.151 127.035 287.151 127.505V127.739C287.151 128.209 287.151 128.913 287.151 129.383C287.151 130.087 287.151 130.791 287.386 131.496C286.917 134.078 287.151 136.661 287.62 139.243C287.62 139.478 287.855 139.713 287.855 139.948C287.855 140.182 288.09 140.417 288.324 140.652C288.559 140.887 288.559 141.121 288.793 141.121C289.263 142.295 289.966 141.826 290.436 142.061C290.67 142.061 290.905 142.295 290.905 142.295L291.139 142.53C291.843 143.234 292.312 142.061 292.782 142.295C293.251 142.53 293.72 142.061 294.189 142.061C294.424 142.061 294.893 142.061 295.128 142.295V142.53C294.658 143.234 295.128 143.704 295.362 144.174C296.066 145.113 296.77 146.286 297.943 146.286L298.177 146.052C298.647 146.756 298.881 145.582 299.35 145.347C300.054 145.347 300.758 145.113 301.462 144.643C301.931 144.643 301.931 143.469 302.4 143.234C303.104 143 303.104 142.295 302.635 141.591V141.356C302.635 140.887 302.635 140.417 302.635 139.948C302.635 137.835 302.869 135.722 302.635 133.609C302.869 133.374 302.869 133.374 303.104 133.609C303.339 134.548 303.573 134.783 304.277 134.783C304.277 135.252 304.042 135.956 304.746 135.722H304.981C305.45 136.426 306.154 135.722 306.388 136.191C306.858 136.896 307.327 136.661 307.796 136.661C308.5 137.835 309.204 138.069 309.673 137.6C309.907 137.6 309.907 137.6 310.142 137.6C310.142 137.6 310.142 137.835 310.377 137.835C310.377 139.009 310.846 139.948 310.846 140.887C311.08 142.295 310.377 144.174 311.315 145.347C311.315 145.817 311.55 146.286 311.784 146.052C312.019 146.052 312.019 146.521 312.253 146.286C312.488 146.521 312.488 146.756 312.723 146.521C312.957 147.695 313.661 146.756 313.896 147.226C313.896 147.46 313.896 147.46 314.13 147.46C314.834 148.165 315.303 148.399 316.007 147.46C316.476 147.695 316.711 147.695 317.18 147.226C317.18 147.226 317.18 147.226 317.415 147.226C317.884 147.46 318.353 147.695 318.588 147.226C318.822 146.991 319.291 147.226 319.526 146.756C319.761 146.521 319.995 146.521 319.995 146.286C320.934 146.286 321.872 146.052 322.341 144.408C323.045 144.408 322.576 143.704 322.81 143.234C323.045 143 323.28 142.765 323.514 142.53C323.749 142.53 323.749 143 323.983 142.765C324.218 142.295 323.983 141.826 323.749 141.356C323.749 139.948 323.749 138.539 323.749 136.896C323.749 136.191 323.983 135.487 323.983 134.783C323.983 134.078 323.983 133.374 323.983 132.67C324.218 131.965 323.983 131.261 324.218 130.557C324.218 129.618 324.922 128.913 324.687 127.739C324.687 126.8 324.687 125.861 324.687 124.922C324.687 123.983 325.156 123.044 324.922 121.87C324.922 121.401 324.922 121.166 324.922 120.696C324.922 119.288 325.156 117.879 325.156 116.47C325.156 116.001 325.156 115.531 325.156 115.062C325.156 114.592 325.156 114.357 325.156 113.888C325.156 113.183 325.156 112.714 325.156 112.01V111.775C325.391 110.601 325.391 109.192 325.156 108.018V107.784C325.156 106.845 325.156 105.671 325.156 104.732C325.156 104.497 325.156 104.497 325.156 104.262C326.095 105.201 325.86 104.732 325.86 104.262Z" fill="#CDAE64"/>
</svg>
