<svg width="225" height="29" viewBox="0 0 225 29" fill="none" xmlns="http://www.w3.org/2000/svg">
<path d="M81.2723 5.51747C79.4689 3.83316 77.2912 2.77834 74.9434 2.06379C71.3876 0.974939 67.7128 0.685714 65.0247 0.668701C61.605 0.668701 59.1891 0.82182 56.7903 1.21312C54.3574 1.62144 52.0096 2.25093 49.7978 3.40783C47.8073 4.44564 46.106 5.82371 44.881 7.7462C43.5199 9.90689 43.0096 12.3058 43.0436 14.8407C43.0606 17.1205 43.537 19.2812 44.7109 21.2717C46.106 23.6366 48.2156 25.2018 50.6825 26.3247C53.1154 27.4305 55.7014 27.9919 58.3385 28.2982C62.5918 28.7916 66.8451 28.7575 71.0984 28.094C73.8375 27.6687 76.4576 26.9201 78.8734 25.508C81.3914 24.0449 83.2288 22.0203 84.2326 19.2471C84.8961 17.3927 85.0322 15.4872 84.9302 13.5477C84.743 10.4003 83.5861 7.69517 81.2723 5.51747ZM75.2156 20.2339C67.7468 20.2339 60.278 20.2339 52.7751 20.2339C52.7751 16.508 52.7751 12.7991 52.7751 9.05622C60.244 9.05622 67.7128 9.05622 75.2156 9.05622C75.2156 12.7651 75.2156 16.491 75.2156 20.2339Z" fill="white"/>
<path d="M123.89 1.97851C120.164 1.41708 116.438 0.906681 112.662 0.736549C109.208 0.58343 105.771 0.63447 102.369 1.19591C99.9356 1.60422 97.5878 2.23371 95.3761 3.39061C93.3175 4.46245 91.5821 5.90857 90.3572 7.91613C89.2853 9.66849 88.792 11.608 88.6558 13.6496C88.5027 16.0655 88.826 18.4133 89.9318 20.591C91.2759 23.2791 93.5046 25.0485 96.1927 26.2734C99.7995 27.9237 103.662 28.4171 107.575 28.5702C112.27 28.7573 116.915 28.315 121.559 27.6345C122.444 27.4984 123.346 27.3623 124.231 27.2261C124.231 24.8783 124.231 22.5815 124.231 20.2337C115.588 20.2337 106.979 20.2337 98.3534 20.2337C98.3534 16.4738 98.3534 12.7649 98.3534 9.02199C106.996 9.02199 115.605 9.02199 124.213 9.02199C124.248 8.91991 124.265 8.88589 124.265 8.86887C124.265 6.69118 124.265 4.49647 124.282 2.31878C124.265 2.02955 124.094 2.01254 123.89 1.97851Z" fill="white"/>
<path d="M224.422 1.48521C221.07 1.48521 217.736 1.50222 214.384 1.4682C213.959 1.4682 213.788 1.6043 213.618 1.97859C210.267 10.264 206.881 18.5495 203.512 26.8349C203.444 26.988 203.308 27.0901 203.206 27.2262C203.121 27.0901 202.985 26.988 202.934 26.8349C199.548 18.5665 196.18 10.2981 192.811 2.02963C192.641 1.62132 192.454 1.45118 191.994 1.4682C188.66 1.48521 185.325 1.48521 182.008 1.48521C181.838 1.48521 181.667 1.48521 181.446 1.48521C181.514 1.65534 181.548 1.77443 181.599 1.87651C184.39 7.8992 187.18 13.9049 189.97 19.9275C190.65 21.3907 191.467 22.7517 192.488 24.0107C194.087 25.9843 196.095 27.3453 198.545 28.0429C201.063 28.7574 203.632 28.8085 206.218 28.4172C208.889 28.0088 211.219 26.886 213.125 24.9465C214.639 23.4153 215.711 21.5778 216.613 19.6383C219.335 13.7688 222.057 7.88218 224.779 2.01262C224.847 1.8595 224.898 1.70638 225 1.50222C224.745 1.48521 224.575 1.48521 224.422 1.48521Z" fill="white"/>
<path d="M43.5709 1.50204C43.4348 1.48503 43.3327 1.48503 43.2476 1.48503C39.7599 1.48503 36.2722 1.48503 32.7845 1.46802C32.4442 1.46802 32.3592 1.65516 32.2571 1.89335C29.3818 8.97085 26.4896 16.0484 23.6144 23.1259C23.104 24.4019 22.5936 25.6778 22.0662 26.9368C22.0151 27.0559 21.896 27.124 21.811 27.226C21.7259 27.141 21.6238 27.0389 21.5387 26.9538C21.5047 26.9198 21.4877 26.8518 21.4707 26.8007C18.1021 18.5153 14.7164 10.2298 11.3648 1.94439C11.2287 1.58711 11.0586 1.46802 10.6673 1.46802C7.28166 1.48503 3.91304 1.48503 0.544423 1.48503C0.391304 1.48503 0.221172 1.48503 0 1.48503C0.102079 1.72322 0.170132 1.87634 0.255198 2.02945C2.65406 7.20148 5.03592 12.3565 7.45179 17.5285C8.31947 19.4 9.11909 21.3054 10.327 23.0238C12.1815 25.6778 14.6144 27.4812 17.7958 28.1958C20.2628 28.7572 22.7467 28.7743 25.2306 28.3149C27.9868 27.8045 30.3006 26.5285 32.172 24.4189C33.431 22.9898 34.3837 21.3735 35.1834 19.6552C37.9225 13.7516 40.6616 7.86499 43.3837 1.9614C43.4348 1.8253 43.4858 1.67218 43.5709 1.50204Z" fill="white"/>
<path d="M128.518 9.03898C134.217 9.03898 139.9 9.03898 145.565 9.03898C145.582 9.09002 145.599 9.14106 145.616 9.20911C145.429 9.29418 145.242 9.39626 145.038 9.4473C143.643 9.80458 142.537 10.5532 141.839 11.8462C141.278 12.884 141.006 13.9898 140.989 15.1467C140.938 19.2469 140.955 23.3471 140.921 27.4303C140.921 27.8046 141.125 27.7876 141.38 27.7876C144.17 27.7876 146.96 27.7876 149.751 27.7876C149.904 27.7876 150.057 27.7705 150.244 27.7535C150.244 21.4927 150.244 15.2658 150.244 9.00495C154.599 9.00495 158.921 9.00495 163.276 9.00495C163.276 6.46998 163.276 3.98605 163.276 1.48511C151.673 1.48511 140.087 1.48511 128.501 1.48511C128.518 4.02008 128.518 6.50401 128.518 9.03898Z" fill="white"/>
<path d="M167.972 27.7706C171.068 27.7706 174.13 27.7706 177.21 27.7706C177.21 19.0088 177.21 10.264 177.21 1.5022C174.13 1.5022 171.068 1.5022 167.972 1.5022C167.972 10.281 167.972 19.0088 167.972 27.7706Z" fill="white"/>
</svg>
